<mxfile host="Electron" modified="2023-06-10T07:08:41.482Z" agent="Mozilla/5.0 (Macintosh; Intel Mac OS X 10_15_7) AppleWebKit/537.36 (KHTML, like Gecko) draw.io/21.2.8 Chrome/112.0.5615.165 Electron/24.2.0 Safari/537.36" etag="wIz66BKrAnXRl1v-rtWj" version="21.2.8" type="device" pages="6">
  <diagram id="LqmLtRON219V4a4PNc9h" name="Legend">
    <mxGraphModel dx="1805" dy="1329" grid="1" gridSize="10" guides="1" tooltips="1" connect="1" arrows="1" fold="1" page="1" pageScale="1" pageWidth="850" pageHeight="1100" math="0" shadow="0">
      <root>
        <mxCell id="0" />
        <mxCell id="1" parent="0" />
        <mxCell id="538he8PSVBTaJU7Xnbh5-1" value="Node" style="sketch=0;points=[[0,0,0],[0.25,0,0],[0.5,0,0],[0.75,0,0],[1,0,0],[0,1,0],[0.25,1,0],[0.5,1,0],[0.75,1,0],[1,1,0],[0,0.25,0],[0,0.5,0],[0,0.75,0],[1,0.25,0],[1,0.5,0],[1,0.75,0]];outlineConnect=0;fontColor=#232F3E;gradientColor=#F78E04;gradientDirection=north;fillColor=#D05C17;strokeColor=#ffffff;dashed=0;verticalLabelPosition=bottom;verticalAlign=top;align=center;html=1;fontSize=12;fontStyle=0;aspect=fixed;shape=mxgraph.aws4.resourceIcon;resIcon=mxgraph.aws4.ec2;" vertex="1" parent="1">
          <mxGeometry x="40" y="40" width="80" height="80" as="geometry" />
        </mxCell>
        <mxCell id="flcOl9XDzfjCVM6PtYfq-5" value="" style="group" vertex="1" connectable="0" parent="1">
          <mxGeometry x="360" y="40" width="80" height="80" as="geometry" />
        </mxCell>
        <mxCell id="flcOl9XDzfjCVM6PtYfq-2" value="Data Node" style="sketch=0;points=[[0,0,0],[0.25,0,0],[0.5,0,0],[0.75,0,0],[1,0,0],[0,1,0],[0.25,1,0],[0.5,1,0],[0.75,1,0],[1,1,0],[0,0.25,0],[0,0.5,0],[0,0.75,0],[1,0.25,0],[1,0.5,0],[1,0.75,0]];outlineConnect=0;gradientDirection=north;fillColor=#dae8fc;strokeColor=#6c8ebf;dashed=0;verticalLabelPosition=bottom;verticalAlign=top;align=center;html=1;fontSize=12;fontStyle=0;aspect=fixed;shape=mxgraph.aws4.resourceIcon;resIcon=mxgraph.aws4.ec2;" vertex="1" parent="flcOl9XDzfjCVM6PtYfq-5">
          <mxGeometry width="80" height="80" as="geometry" />
        </mxCell>
        <mxCell id="flcOl9XDzfjCVM6PtYfq-4" value="" style="shape=cylinder;whiteSpace=wrap;html=1;boundedLbl=1;backgroundOutline=1;fillColor=#dae8fc;strokeColor=#6c8ebf;strokeWidth=2;" vertex="1" parent="flcOl9XDzfjCVM6PtYfq-5">
          <mxGeometry x="30" y="30" width="20" height="20" as="geometry" />
        </mxCell>
        <mxCell id="-5qwD0yx-18ZKS9U1aRI-6" value="" style="group;fontStyle=1" vertex="1" connectable="0" parent="1">
          <mxGeometry x="380" y="180" width="40" height="40" as="geometry" />
        </mxCell>
        <mxCell id="-5qwD0yx-18ZKS9U1aRI-2" value="" style="shape=cylinder;whiteSpace=wrap;html=1;boundedLbl=1;backgroundOutline=1;fillColor=#dae8fc;strokeColor=#6c8ebf;strokeWidth=2;" vertex="1" parent="-5qwD0yx-18ZKS9U1aRI-6">
          <mxGeometry x="12" y="12" width="10" height="10" as="geometry" />
        </mxCell>
        <mxCell id="-5qwD0yx-18ZKS9U1aRI-1" value="ICU&lt;br&gt;(Search Compute Unit)" style="pointerEvents=1;shadow=0;dashed=0;html=1;strokeColor=#6c8ebf;fillColor=#dae8fc;labelPosition=center;verticalLabelPosition=bottom;verticalAlign=top;align=center;outlineConnect=0;shape=mxgraph.veeam.cpu;" vertex="1" parent="-5qwD0yx-18ZKS9U1aRI-6">
          <mxGeometry width="40" height="40" as="geometry" />
        </mxCell>
        <mxCell id="-5qwD0yx-18ZKS9U1aRI-7" value="OCU&lt;br&gt;(OpenSearch Compute Unit)" style="pointerEvents=1;shadow=0;dashed=0;html=1;strokeColor=none;fillColor=#D05C17;labelPosition=center;verticalLabelPosition=bottom;verticalAlign=top;align=center;outlineConnect=0;shape=mxgraph.veeam.cpu;gradientColor=#F78E04;" vertex="1" parent="1">
          <mxGeometry x="60" y="180" width="40" height="40" as="geometry" />
        </mxCell>
        <mxCell id="-5qwD0yx-18ZKS9U1aRI-8" value="" style="group" vertex="1" connectable="0" parent="1">
          <mxGeometry x="200" y="40" width="80" height="80" as="geometry" />
        </mxCell>
        <mxCell id="538he8PSVBTaJU7Xnbh5-2" value="Master Node" style="sketch=0;points=[[0,0,0],[0.25,0,0],[0.5,0,0],[0.75,0,0],[1,0,0],[0,1,0],[0.25,1,0],[0.5,1,0],[0.75,1,0],[1,1,0],[0,0.25,0],[0,0.5,0],[0,0.75,0],[1,0.25,0],[1,0.5,0],[1,0.75,0]];outlineConnect=0;gradientDirection=north;fillColor=#e1d5e7;strokeColor=#9673a6;dashed=0;verticalLabelPosition=bottom;verticalAlign=top;align=center;html=1;fontSize=12;fontStyle=0;aspect=fixed;shape=mxgraph.aws4.resourceIcon;resIcon=mxgraph.aws4.ec2;container=0;" vertex="1" parent="-5qwD0yx-18ZKS9U1aRI-8">
          <mxGeometry width="80" height="80" as="geometry" />
        </mxCell>
        <mxCell id="538he8PSVBTaJU7Xnbh5-3" value="" style="html=1;verticalLabelPosition=bottom;align=center;labelBackgroundColor=#ffffff;verticalAlign=top;strokeWidth=2;strokeColor=#9673a6;shadow=0;dashed=0;shape=mxgraph.ios7.icons.flag;fillColor=#e1d5e7;container=0;" vertex="1" parent="-5qwD0yx-18ZKS9U1aRI-8">
          <mxGeometry x="30" y="30" width="20" height="20" as="geometry" />
        </mxCell>
        <mxCell id="-5qwD0yx-18ZKS9U1aRI-11" value="" style="group" vertex="1" connectable="0" parent="1">
          <mxGeometry x="220" y="180" width="40" height="40" as="geometry" />
        </mxCell>
        <mxCell id="-5qwD0yx-18ZKS9U1aRI-5" value="ICU&lt;br&gt;(Index Compute Unit)" style="pointerEvents=1;shadow=0;dashed=0;html=1;strokeColor=#9673a6;fillColor=#e1d5e7;labelPosition=center;verticalLabelPosition=bottom;verticalAlign=top;align=center;outlineConnect=0;shape=mxgraph.veeam.cpu;" vertex="1" parent="-5qwD0yx-18ZKS9U1aRI-11">
          <mxGeometry width="40" height="40" as="geometry" />
        </mxCell>
        <mxCell id="-5qwD0yx-18ZKS9U1aRI-10" value="" style="html=1;verticalLabelPosition=bottom;align=center;labelBackgroundColor=#ffffff;verticalAlign=top;strokeWidth=2;strokeColor=#9673a6;shadow=0;dashed=0;shape=mxgraph.ios7.icons.looking_glass;fillColor=#e1d5e7;" vertex="1" parent="-5qwD0yx-18ZKS9U1aRI-11">
          <mxGeometry x="12" y="12" width="10" height="10" as="geometry" />
        </mxCell>
        <mxCell id="dC1tkVFs3yWEbo2LMVvb-1" value="memory" style="pointerEvents=1;shadow=0;dashed=0;html=1;strokeColor=none;fillColor=#4495D1;labelPosition=center;verticalLabelPosition=bottom;verticalAlign=top;align=center;outlineConnect=0;shape=mxgraph.veeam.ram;" vertex="1" parent="1">
          <mxGeometry x="200" y="340" width="80" height="40" as="geometry" />
        </mxCell>
        <mxCell id="dC1tkVFs3yWEbo2LMVvb-2" value="disk" style="shadow=0;dashed=0;html=1;strokeColor=none;fillColor=#4495D1;labelPosition=center;verticalLabelPosition=bottom;verticalAlign=top;align=center;outlineConnect=0;shape=mxgraph.veeam.local_disk;" vertex="1" parent="1">
          <mxGeometry x="360" y="320" width="80" height="80" as="geometry" />
        </mxCell>
        <mxCell id="dC1tkVFs3yWEbo2LMVvb-3" value="CPU" style="pointerEvents=1;shadow=0;dashed=0;html=1;strokeColor=none;fillColor=#4495D1;labelPosition=center;verticalLabelPosition=bottom;verticalAlign=top;align=center;outlineConnect=0;shape=mxgraph.veeam.cpu;" vertex="1" parent="1">
          <mxGeometry x="60" y="340" width="40" height="40" as="geometry" />
        </mxCell>
        <mxCell id="OFZB7feAUcK9pzhtSaqu-1" value="&lt;font color=&quot;#000000&quot;&gt;client&lt;/font&gt;" style="sketch=0;outlineConnect=0;fontColor=#ffffff;fillColor=#647687;strokeColor=#314354;dashed=0;verticalLabelPosition=bottom;verticalAlign=top;align=center;html=1;fontSize=12;fontStyle=0;pointerEvents=1;shape=mxgraph.aws4.client;" vertex="1" parent="1">
          <mxGeometry x="40" y="640" width="80" height="80" as="geometry" />
        </mxCell>
        <mxCell id="OFZB7feAUcK9pzhtSaqu-3" value="Shard" style="strokeWidth=2;html=1;shape=mxgraph.flowchart.direct_data;whiteSpace=wrap;direction=west;fillColor=#d5e8d4;strokeColor=#82b366;" vertex="1" parent="1">
          <mxGeometry x="40" y="480" width="80" height="40" as="geometry" />
        </mxCell>
        <mxCell id="OFZB7feAUcK9pzhtSaqu-11" value="Translog" style="sketch=0;outlineConnect=0;fontColor=#232F3E;gradientColor=none;fillColor=#82B366;strokeColor=none;dashed=0;verticalLabelPosition=bottom;verticalAlign=top;align=center;html=1;fontSize=12;fontStyle=0;pointerEvents=1;shape=mxgraph.aws4.documents;" vertex="1" parent="1">
          <mxGeometry x="520" y="480" width="80" height="80" as="geometry" />
        </mxCell>
        <mxCell id="paBtLtiZqlzb-ybQLF3L-1" value="&lt;font style=&quot;font-size: 24px;&quot;&gt;👀&lt;/font&gt;" style="rounded=0;whiteSpace=wrap;html=1;strokeColor=#b85450;fillColor=#f8cecc;opacity=30;verticalAlign=top;align=left;" vertex="1" parent="1">
          <mxGeometry x="200" y="640" width="80" height="80" as="geometry" />
        </mxCell>
        <mxCell id="_61CTqvVJrapK6DihGSk-1" value="Title ⏰ 5 min" style="text;html=1;strokeColor=#9673a6;fillColor=#e1d5e7;align=center;verticalAlign=middle;whiteSpace=wrap;rounded=0;fontStyle=1;fontSize=16;" vertex="1" parent="1">
          <mxGeometry x="40" y="800" width="800" height="40" as="geometry" />
        </mxCell>
        <mxCell id="FE-znFwMOLOwpMeWEIHN-3" value="Data" style="strokeWidth=2;html=1;shape=mxgraph.flowchart.direct_data;whiteSpace=wrap;direction=north;fillColor=#d5e8d4;strokeColor=#82b366;" vertex="1" parent="1">
          <mxGeometry x="220" y="480" width="40" height="40" as="geometry" />
        </mxCell>
        <mxCell id="oj60slL8SzGMJ-oVwYtL-1" value="doc" style="verticalLabelPosition=bottom;html=1;verticalAlign=top;align=center;strokeColor=#82B366;fillColor=#82B366;shape=mxgraph.azure.file;pointerEvents=1;fontSize=12;" vertex="1" parent="1">
          <mxGeometry x="680" y="480" width="40" height="40" as="geometry" />
        </mxCell>
        <mxCell id="rIIQwO5_GbMKmuoUVs2A-1" value="Segment" style="rounded=1;whiteSpace=wrap;html=1;fillColor=#d5e8d4;strokeColor=#82b366;strokeWidth=2;" vertex="1" parent="1">
          <mxGeometry x="360" y="480" width="80" height="40" as="geometry" />
        </mxCell>
        <mxCell id="XAqZkcH0qxVsYEyhY4Jz-1" value="JSON" style="sketch=0;pointerEvents=1;shadow=0;dashed=0;html=1;strokeColor=none;labelPosition=center;verticalLabelPosition=bottom;verticalAlign=top;align=center;fillColor=#82B366;shape=mxgraph.azure.code_file" vertex="1" parent="1">
          <mxGeometry x="800" y="480" width="40" height="40" as="geometry" />
        </mxCell>
        <mxCell id="to-VKTmCCNtqOUrEX4Li-1" value="" style="rounded=0;whiteSpace=wrap;html=1;fillColor=none;strokeWidth=2;strokeColor=#82B366;" vertex="1" parent="1">
          <mxGeometry x="360" y="640" width="80" height="80" as="geometry" />
        </mxCell>
        <mxCell id="_LFsk5pAKQ36XhP8nCvq-1" value="" style="sketch=0;outlineConnect=0;fontColor=#232F3E;gradientColor=none;fillColor=#3F8624;strokeColor=none;dashed=0;verticalLabelPosition=bottom;verticalAlign=top;align=center;html=1;fontSize=12;fontStyle=0;pointerEvents=1;shape=mxgraph.aws4.bucket_with_objects;" vertex="1" parent="1">
          <mxGeometry x="520" y="640" width="80" height="80" as="geometry" />
        </mxCell>
      </root>
    </mxGraphModel>
  </diagram>
  <diagram id="OfJtlW7_59DaI96wpx6N" name="What-is-OSS">
    <mxGraphModel dx="1303" dy="960" grid="1" gridSize="10" guides="1" tooltips="1" connect="1" arrows="1" fold="1" page="1" pageScale="1" pageWidth="850" pageHeight="1100" math="0" shadow="0">
      <root>
        <mxCell id="0" />
        <mxCell id="1" parent="0" />
        <mxCell id="A_pBkV0cCw7etvynCCj8-1" value="What is Amazon OpenSearch (OSS) ⏰ 5 min" style="text;html=1;strokeColor=#9673a6;fillColor=#e1d5e7;align=center;verticalAlign=middle;whiteSpace=wrap;rounded=0;fontStyle=1;fontSize=16;" vertex="1" parent="1">
          <mxGeometry x="40" y="40" width="800" height="40" as="geometry" />
        </mxCell>
        <mxCell id="7wK2JGW7p67NDRU7vaHa-2" value="&lt;h1&gt;Background of Search Technology and Products&lt;/h1&gt;&lt;p&gt;&lt;/p&gt;&lt;ul&gt;&lt;li&gt;&lt;a href=&quot;https://lucene.apache.org/&quot;&gt;Apache Lucene&lt;/a&gt;&amp;nbsp;(from 1999), the search engine core, indexing, searching, algorithm, etc.&lt;/li&gt;&lt;li&gt;&lt;a href=&quot;https://www.elastic.co/&quot;&gt;ElasticSearch&lt;/a&gt; (from 2010), a full featured search and analytics product, a database-liked server, also a commercial company.&lt;/li&gt;&lt;li&gt;&lt;a href=&quot;https://www.elastic.co/pricing/faq/licensing&quot;&gt;ElasticSearch Licensing Change&lt;/a&gt;&amp;nbsp;(no longer friendly for commercial use since Feb 2021)&lt;/li&gt;&lt;li&gt;&lt;a href=&quot;https://github.com/opensearch-project/OpenSearch&quot;&gt;Amazon OpenSearch&lt;/a&gt; (from April 2021), a fork from ElasticSearch&amp;nbsp;7.10, maintained by Amazon, and commit to be open source and free for commercial use forever.&lt;/li&gt;&lt;li&gt;&lt;a href=&quot;https://docs.aws.amazon.com/opensearch-service/latest/developerguide/what-is.html&quot;&gt;Amazon OpenSearch Service&lt;/a&gt; (from April 2021), a cloud native, secure, highly available, low ops, AWS managed OpenSearch cluster as a service product. You pay only for what you use.&lt;/li&gt;&lt;li&gt;&lt;a href=&quot;https://docs.aws.amazon.com/opensearch-service/latest/developerguide/serverless.html&quot;&gt;Amazon OpenSearch Serverless&lt;/a&gt;&amp;nbsp;(from Jan 2023), a cloud native, auto-scaled, no-ops OpenSearch as a service production. Based on the redesigned architecture.&lt;/li&gt;&lt;li&gt;Future? Let&#39;s see.&lt;/li&gt;&lt;/ul&gt;&lt;p&gt;&lt;/p&gt;" style="text;html=1;strokeColor=default;fillColor=none;spacing=5;spacingTop=-20;whiteSpace=wrap;overflow=hidden;rounded=0;strokeWidth=1;" vertex="1" parent="1">
          <mxGeometry x="40" y="120" width="800" height="200" as="geometry" />
        </mxCell>
        <mxCell id="7wK2JGW7p67NDRU7vaHa-3" value="&lt;h1&gt;OpenSearch Links&lt;/h1&gt;&lt;p&gt;&lt;/p&gt;&lt;ul&gt;&lt;li&gt;&lt;a href=&quot;https://docs.aws.amazon.com/opensearch-service/latest/developerguide/what-is.html&quot;&gt;What is Amazon OpenSearch&lt;/a&gt;&lt;/li&gt;&lt;li&gt;&lt;a href=&quot;https://docs.aws.amazon.com/opensearch-service/latest/developerguide/serverless.html&quot;&gt;Amazon OpenSearch Serverless&lt;/a&gt;&lt;/li&gt;&lt;li&gt;&lt;a href=&quot;https://opensearch.org/docs/latest/&quot;&gt;OpenSearch Develop Docs&lt;/a&gt;&lt;/li&gt;&lt;li&gt;&lt;a style=&quot;background-color: initial;&quot; href=&quot;https://github.com/MacHu-GWU/aws_dla_opensearch_examples&quot;&gt;Opensearch Examples&lt;/a&gt;&lt;/li&gt;&lt;/ul&gt;&lt;p&gt;&lt;/p&gt;" style="text;html=1;strokeColor=default;fillColor=none;spacing=5;spacingTop=-20;whiteSpace=wrap;overflow=hidden;rounded=0;strokeWidth=1;" vertex="1" parent="1">
          <mxGeometry x="40" y="960" width="360" height="120" as="geometry" />
        </mxCell>
        <mxCell id="7wK2JGW7p67NDRU7vaHa-18" value="&lt;h1&gt;ElasticSearch vs OpenSearch&lt;/h1&gt;&lt;div&gt;&lt;table style=&quot;table-layout: fixed; font-size: 10pt; font-family: arial, sans, sans-serif; width: 0px; border-collapse: collapse; border: none;&quot; border=&quot;1&quot; dir=&quot;ltr&quot; cellpadding=&quot;0&quot; cellspacing=&quot;0&quot; xmlns=&quot;http://www.w3.org/1999/xhtml&quot;&gt;&lt;colgroup&gt;&lt;col width=&quot;164&quot;&gt;&lt;col width=&quot;307&quot;&gt;&lt;col width=&quot;307&quot;&gt;&lt;/colgroup&gt;&lt;tbody&gt;&lt;tr style=&quot;height: 21px;&quot;&gt;&lt;td style=&quot;border: 1px solid rgb(204, 204, 204); overflow: hidden; padding: 2px 3px; vertical-align: middle; background-color: rgb(99, 210, 151);&quot;&gt;&lt;/td&gt;&lt;td style=&quot;border: 1px solid rgb(204, 204, 204); overflow: hidden; padding: 2px 3px; vertical-align: middle; background-color: rgb(99, 210, 151); overflow-wrap: break-word;&quot; data-sheets-value=&quot;{&amp;quot;1&amp;quot;:2,&amp;quot;2&amp;quot;:&amp;quot;ElasticSearch&amp;quot;}&quot;&gt;ElasticSearch&lt;/td&gt;&lt;td style=&quot;border: 1px solid rgb(204, 204, 204); overflow: hidden; padding: 2px 3px; vertical-align: middle; background-color: rgb(99, 210, 151); overflow-wrap: break-word;&quot; data-sheets-value=&quot;{&amp;quot;1&amp;quot;:2,&amp;quot;2&amp;quot;:&amp;quot;OpenSearch&amp;quot;}&quot;&gt;OpenSearch&lt;/td&gt;&lt;/tr&gt;&lt;tr style=&quot;height: 21px;&quot;&gt;&lt;td style=&quot;border: 1px solid rgb(204, 204, 204); overflow: hidden; padding: 2px 3px; vertical-align: middle; background-color: rgb(255, 255, 255); overflow-wrap: break-word;&quot; data-sheets-value=&quot;{&amp;quot;1&amp;quot;:2,&amp;quot;2&amp;quot;:&amp;quot;Management Effort&amp;quot;}&quot;&gt;Management Effort&lt;/td&gt;&lt;td style=&quot;border: 1px solid rgb(204, 204, 204); overflow: hidden; padding: 2px 3px; vertical-align: middle; background-color: rgb(255, 255, 255); overflow-wrap: break-word;&quot; data-sheets-value=&quot;{&amp;quot;1&amp;quot;:2,&amp;quot;2&amp;quot;:&amp;quot;- You manage the VM, install the server, configure the server.\n- You manage the Networking and Authentication.\n- You manage the cluster monitoring.\n- You add, remove, fix nodes.\n- You implement the high-availability and manage the backup.&amp;quot;}&quot;&gt;- You manage the VM, install the server, configure the server.&lt;br&gt;- You manage the Networking and Authentication.&lt;br&gt;- You manage the cluster monitoring.&lt;br&gt;- You add, remove, fix nodes.&lt;br&gt;- You implement the high-availability and manage the backup.&lt;/td&gt;&lt;td style=&quot;border: 1px solid rgb(204, 204, 204); overflow: hidden; padding: 2px 3px; vertical-align: middle; background-color: rgb(255, 255, 255); overflow-wrap: break-word;&quot; data-sheets-value=&quot;{&amp;quot;1&amp;quot;:2,&amp;quot;2&amp;quot;:&amp;quot;- AWS manages the node, and everything.\n- You add nodes by clicking a button.\n&amp;quot;}&quot;&gt;- AWS manages the node, and everything.&lt;br&gt;- You add nodes by clicking a button.&lt;br&gt;&lt;/td&gt;&lt;/tr&gt;&lt;tr style=&quot;height: 21px;&quot;&gt;&lt;td style=&quot;border: 1px solid rgb(204, 204, 204); overflow: hidden; padding: 2px 3px; vertical-align: middle; background-color: rgb(231, 249, 239); overflow-wrap: break-word;&quot; data-sheets-value=&quot;{&amp;quot;1&amp;quot;:2,&amp;quot;2&amp;quot;:&amp;quot;Security&amp;quot;}&quot;&gt;Security&lt;/td&gt;&lt;td style=&quot;border: 1px solid rgb(204, 204, 204); overflow: hidden; padding: 2px 3px; vertical-align: middle; background-color: rgb(231, 249, 239); overflow-wrap: break-word;&quot; data-sheets-hyperlinkruns=&quot;{&amp;quot;1&amp;quot;:0,&amp;quot;2&amp;quot;:&amp;quot;https://www.elastic.co/guide/en/elasticsearch/reference/current/secure-cluster.html&amp;quot;}{&amp;quot;1&amp;quot;:66}&quot; data-sheets-textstyleruns=&quot;{&amp;quot;1&amp;quot;:0,&amp;quot;2&amp;quot;:{&amp;quot;2&amp;quot;:{&amp;quot;1&amp;quot;:2,&amp;quot;2&amp;quot;:1136076},&amp;quot;9&amp;quot;:1}}{&amp;quot;1&amp;quot;:66}&quot; data-sheets-value=&quot;{&amp;quot;1&amp;quot;:2,&amp;quot;2&amp;quot;:&amp;quot;User, token based authentication, LDAP, SAML, Kerberos integration, etc.&amp;quot;}&quot;&gt;&lt;a href=&quot;https://www.elastic.co/guide/en/elasticsearch/reference/current/secure-cluster.html&quot; target=&quot;_blank&quot; class=&quot;in-cell-link&quot;&gt;User, token based authentication, LDAP, SAML, Kerberos integration&lt;/a&gt;&lt;span style=&quot;font-size: 10pt; font-family: Arial;&quot;&gt;, etc.&lt;/span&gt;&lt;/td&gt;&lt;td style=&quot;border: 1px solid rgb(204, 204, 204); overflow: hidden; padding: 2px 3px; vertical-align: middle; background-color: rgb(231, 249, 239); overflow-wrap: break-word;&quot; data-sheets-hyperlinkruns=&quot;{&amp;quot;1&amp;quot;:68,&amp;quot;2&amp;quot;:&amp;quot;https://docs.aws.amazon.com/opensearch-service/latest/developerguide/ac.html&amp;quot;}{&amp;quot;1&amp;quot;:123}{&amp;quot;1&amp;quot;:141,&amp;quot;2&amp;quot;:&amp;quot;https://docs.aws.amazon.com/opensearch-service/latest/developerguide/security.html&amp;quot;}{&amp;quot;1&amp;quot;:207}&quot; data-sheets-textstyleruns=&quot;{&amp;quot;1&amp;quot;:0}{&amp;quot;1&amp;quot;:68,&amp;quot;2&amp;quot;:{&amp;quot;2&amp;quot;:{&amp;quot;1&amp;quot;:2,&amp;quot;2&amp;quot;:1136076},&amp;quot;9&amp;quot;:1}}{&amp;quot;1&amp;quot;:123}{&amp;quot;1&amp;quot;:141,&amp;quot;2&amp;quot;:{&amp;quot;2&amp;quot;:{&amp;quot;1&amp;quot;:2,&amp;quot;2&amp;quot;:1136076},&amp;quot;9&amp;quot;:1}}{&amp;quot;1&amp;quot;:207}&quot; data-sheets-value=&quot;{&amp;quot;1&amp;quot;:2,&amp;quot;2&amp;quot;:&amp;quot;- everything provided by ElasticSearch\n- Provide more Cloud native, identity based, resource based, ip based access control out-of-the-box\n- A lot more like Data protection, Compliance validation, Resilience, etc ...&amp;quot;}&quot;&gt;&lt;span style=&quot;font-size: 10pt; font-family: Arial;&quot;&gt;- everything provided by ElasticSearch&lt;br&gt;- Provide more Cloud native, &lt;/span&gt;&lt;span style=&quot;font-size: 10pt; font-family: Arial; text-decoration-line: underline; text-decoration-skip-ink: none; color: rgb(17, 85, 204);&quot;&gt;&lt;a href=&quot;https://docs.aws.amazon.com/opensearch-service/latest/developerguide/ac.html&quot; target=&quot;_blank&quot; class=&quot;in-cell-link&quot;&gt;identity based, resource based, ip based access control&lt;/a&gt;&lt;/span&gt;&lt;span style=&quot;font-size: 10pt; font-family: Arial;&quot;&gt; out-of-the-box&lt;br&gt;- &lt;/span&gt;&lt;span style=&quot;font-size: 10pt; font-family: Arial; text-decoration-line: underline; text-decoration-skip-ink: none; color: rgb(17, 85, 204);&quot;&gt;&lt;a href=&quot;https://docs.aws.amazon.com/opensearch-service/latest/developerguide/security.html&quot; target=&quot;_blank&quot; class=&quot;in-cell-link&quot;&gt;A lot more like Data protection, Compliance validation, Resilience&lt;/a&gt;&lt;/span&gt;&lt;span style=&quot;font-size: 10pt; font-family: Arial;&quot;&gt;, etc ...&lt;/span&gt;&lt;/td&gt;&lt;/tr&gt;&lt;tr style=&quot;height: 21px;&quot;&gt;&lt;td style=&quot;border: 1px solid rgb(204, 204, 204); overflow: hidden; padding: 2px 3px; vertical-align: middle; background-color: rgb(255, 255, 255); overflow-wrap: break-word;&quot; data-sheets-value=&quot;{&amp;quot;1&amp;quot;:2,&amp;quot;2&amp;quot;:&amp;quot;Scaling&amp;quot;}&quot;&gt;Scaling&lt;/td&gt;&lt;td style=&quot;border: 1px solid rgb(204, 204, 204); overflow: hidden; padding: 2px 3px; vertical-align: middle; background-color: rgb(255, 255, 255); overflow-wrap: break-word;&quot; data-sheets-value=&quot;{&amp;quot;1&amp;quot;:2,&amp;quot;2&amp;quot;:&amp;quot;- You manage computation and storage scaling yourself. And they are strongly coupled.\n- You can scale up, but very difficult to scale down.&amp;quot;}&quot;&gt;- You manage computation and storage scaling yourself. And they are strongly coupled.&lt;br&gt;- You can scale up, but very difficult to scale down.&lt;/td&gt;&lt;td style=&quot;border: 1px solid rgb(204, 204, 204); overflow: hidden; padding: 2px 3px; vertical-align: middle; background-color: rgb(255, 255, 255); overflow-wrap: break-word;&quot; data-sheets-hyperlinkruns=&quot;{&amp;quot;1&amp;quot;:0,&amp;quot;2&amp;quot;:&amp;quot;https://docs.aws.amazon.com/opensearch-service/latest/developerguide/serverless.html&amp;quot;}{&amp;quot;1&amp;quot;:21}&quot; data-sheets-textstyleruns=&quot;{&amp;quot;1&amp;quot;:0,&amp;quot;2&amp;quot;:{&amp;quot;2&amp;quot;:{&amp;quot;1&amp;quot;:2,&amp;quot;2&amp;quot;:1136076},&amp;quot;9&amp;quot;:1}}{&amp;quot;1&amp;quot;:21}&quot; data-sheets-value=&quot;{&amp;quot;1&amp;quot;:2,&amp;quot;2&amp;quot;:&amp;quot;Opensearch serverless provide the capability to scale the reading / writing / storage independently, and AWS manage the automatical scale up and even down. You only pay what you use.&amp;quot;}&quot;&gt;&lt;span style=&quot;font-size: 10pt; font-family: Arial; text-decoration-line: underline; text-decoration-skip-ink: none; color: rgb(17, 85, 204);&quot;&gt;&lt;a href=&quot;https://docs.aws.amazon.com/opensearch-service/latest/developerguide/serverless.html&quot; target=&quot;_blank&quot; class=&quot;in-cell-link&quot;&gt;Opensearch serverless&lt;/a&gt;&lt;/span&gt;&lt;span style=&quot;font-size: 10pt; font-family: Arial;&quot;&gt; provide the capability to scale the reading / writing / storage independently, and AWS manage the automatical scale up and even down. You only pay what you use.&lt;/span&gt;&lt;/td&gt;&lt;/tr&gt;&lt;/tbody&gt;&lt;/table&gt;&lt;/div&gt;&lt;p&gt;&lt;/p&gt;" style="text;html=1;strokeColor=default;fillColor=none;spacing=5;spacingTop=-20;whiteSpace=wrap;overflow=hidden;rounded=0;strokeWidth=1;" vertex="1" parent="1">
          <mxGeometry x="40" y="440" width="800" height="400" as="geometry" />
        </mxCell>
        <mxCell id="BeQelvPRtcdFiDa7Av01-1" value="&lt;font style=&quot;font-size: 24px;&quot;&gt;👀&lt;/font&gt;" style="rounded=0;whiteSpace=wrap;html=1;strokeColor=#b85450;fillColor=#f8cecc;opacity=30;verticalAlign=top;align=left;" vertex="1" parent="1">
          <mxGeometry x="10" y="20" width="80" height="80" as="geometry" />
        </mxCell>
      </root>
    </mxGraphModel>
  </diagram>
  <diagram id="jWBvHKld7AOgrhEGFxCC" name="Why-Searching-is-Fast-in-OSS">
    <mxGraphModel dx="1955" dy="1440" grid="1" gridSize="10" guides="1" tooltips="1" connect="1" arrows="1" fold="1" page="1" pageScale="1" pageWidth="850" pageHeight="1100" math="0" shadow="0">
      <root>
        <mxCell id="0" />
        <mxCell id="1" parent="0" />
        <mxCell id="8FqBqj8-TPqgvXC23O8A-1" value="&lt;h1&gt;Why Searching is Fast in OSS&lt;/h1&gt;&lt;p&gt;&lt;/p&gt;&lt;ul&gt;&lt;li&gt;RDBMS&lt;/li&gt;&lt;ul&gt;&lt;li&gt;Oracle, IBM DB2, MSSQL, MySQL, Postgres, etc ...&lt;/li&gt;&lt;li&gt;Usually is not a distribution system (Oracle RAC is not true distribution).&lt;/li&gt;&lt;li&gt;Index doesn&#39;t work well for full text search because it growing too big on single node DB.&lt;/li&gt;&lt;/ul&gt;&lt;li&gt;Big Data Analytics System&lt;/li&gt;&lt;ul&gt;&lt;li&gt;Query engine is usually a distribution system.&lt;/li&gt;&lt;li&gt;Leverage partition and push-down predicate to optimize query.&lt;/li&gt;&lt;li&gt;Doesn&#39;t support full text search, fuzzy search (has to scan full data, very slow).&lt;/li&gt;&lt;/ul&gt;&lt;li&gt;OpenSearch&lt;/li&gt;&lt;ul&gt;&lt;li&gt;A distribution system, in terms of read / write / storage.&lt;/li&gt;&lt;li&gt;Forward index optimize term based search, range search.&lt;/li&gt;&lt;li&gt;Inverse index optimize full text search and fuzzy search.&lt;/li&gt;&lt;/ul&gt;&lt;/ul&gt;&lt;p&gt;&lt;/p&gt;" style="text;html=1;strokeColor=default;fillColor=none;spacing=5;spacingTop=-20;whiteSpace=wrap;overflow=hidden;rounded=0;" vertex="1" parent="1">
          <mxGeometry x="40" y="120" width="800" height="240" as="geometry" />
        </mxCell>
        <mxCell id="xbrspDcAmFDmyUTmEL24-1" value="Why Searching is Fast in OSS ⏰ 5 min" style="text;html=1;strokeColor=#9673a6;fillColor=#e1d5e7;align=center;verticalAlign=middle;whiteSpace=wrap;rounded=0;fontStyle=1;fontSize=16;" vertex="1" parent="1">
          <mxGeometry x="40" y="40" width="800" height="40" as="geometry" />
        </mxCell>
        <mxCell id="H_C5uYjQCkLqqmg5XiB2-1" value="Shard" style="strokeWidth=2;html=1;shape=mxgraph.flowchart.direct_data;whiteSpace=wrap;direction=west;fillColor=#d5e8d4;strokeColor=#82b366;" vertex="1" parent="1">
          <mxGeometry x="240" y="600" width="80" height="40" as="geometry" />
        </mxCell>
        <mxCell id="6pxeQIftH1imnFVjsGtO-5" value="write to this shard" style="rounded=0;orthogonalLoop=1;jettySize=auto;html=1;exitX=1;exitY=0.5;exitDx=0;exitDy=0;exitPerimeter=0;entryX=1;entryY=0.5;entryDx=0;entryDy=0;entryPerimeter=0;" edge="1" parent="1" source="T6NC9E5eNvhYKEPgQQKn-1" target="H_C5uYjQCkLqqmg5XiB2-1">
          <mxGeometry relative="1" as="geometry" />
        </mxCell>
        <mxCell id="T6NC9E5eNvhYKEPgQQKn-1" value="doc" style="verticalLabelPosition=bottom;html=1;verticalAlign=top;align=center;strokeColor=#82B366;fillColor=#82B366;shape=mxgraph.azure.file;pointerEvents=1;fontSize=12;" vertex="1" parent="1">
          <mxGeometry x="120" y="680" width="40" height="40" as="geometry" />
        </mxCell>
        <mxCell id="T6NC9E5eNvhYKEPgQQKn-2" value="Shard" style="strokeWidth=2;html=1;shape=mxgraph.flowchart.direct_data;whiteSpace=wrap;direction=west;fillColor=#d5e8d4;strokeColor=#82b366;" vertex="1" parent="1">
          <mxGeometry x="240" y="680" width="80" height="40" as="geometry" />
        </mxCell>
        <mxCell id="T6NC9E5eNvhYKEPgQQKn-3" value="Shard" style="strokeWidth=2;html=1;shape=mxgraph.flowchart.direct_data;whiteSpace=wrap;direction=west;fillColor=#d5e8d4;strokeColor=#82b366;" vertex="1" parent="1">
          <mxGeometry x="240" y="760" width="80" height="40" as="geometry" />
        </mxCell>
        <mxCell id="vLF6NwfQWhycEAs-ltwS-45" value="" style="rounded=0;whiteSpace=wrap;html=1;fillColor=none;strokeWidth=2;strokeColor=#82B366;verticalAlign=top;" vertex="1" parent="1">
          <mxGeometry x="80" y="560" width="280" height="280" as="geometry" />
        </mxCell>
        <mxCell id="Y-nZf1zKs_Nu4qRUilt1-1" value="&lt;h1&gt;How does Index (write) works in OSS&lt;/h1&gt;" style="text;html=1;strokeColor=default;fillColor=none;spacing=5;spacingTop=-20;whiteSpace=wrap;overflow=hidden;rounded=0;" vertex="1" parent="1">
          <mxGeometry x="40" y="480" width="800" height="400" as="geometry" />
        </mxCell>
        <mxCell id="Y-nZf1zKs_Nu4qRUilt1-3" value="Shard" style="strokeWidth=2;html=1;shape=mxgraph.flowchart.direct_data;whiteSpace=wrap;direction=west;fillColor=#d5e8d4;strokeColor=#82b366;" vertex="1" parent="1">
          <mxGeometry x="240" y="1120" width="80" height="40" as="geometry" />
        </mxCell>
        <mxCell id="Y-nZf1zKs_Nu4qRUilt1-4" value="must in this shard" style="rounded=0;orthogonalLoop=1;jettySize=auto;html=1;entryX=1;entryY=0.5;entryDx=0;entryDy=0;entryPerimeter=0;exitX=1;exitY=0.5;exitDx=0;exitDy=0;exitPerimeter=0;" edge="1" parent="1" source="9lHkXNxrLJq0t33sKM2w-1" target="Y-nZf1zKs_Nu4qRUilt1-3">
          <mxGeometry relative="1" as="geometry">
            <mxPoint x="200" y="1220" as="sourcePoint" />
          </mxGeometry>
        </mxCell>
        <mxCell id="Y-nZf1zKs_Nu4qRUilt1-6" value="Shard" style="strokeWidth=2;html=1;shape=mxgraph.flowchart.direct_data;whiteSpace=wrap;direction=west;fillColor=#d5e8d4;strokeColor=#82b366;" vertex="1" parent="1">
          <mxGeometry x="240" y="1200" width="80" height="40" as="geometry" />
        </mxCell>
        <mxCell id="Y-nZf1zKs_Nu4qRUilt1-7" value="Shard" style="strokeWidth=2;html=1;shape=mxgraph.flowchart.direct_data;whiteSpace=wrap;direction=west;fillColor=#d5e8d4;strokeColor=#82b366;" vertex="1" parent="1">
          <mxGeometry x="240" y="1280" width="80" height="40" as="geometry" />
        </mxCell>
        <mxCell id="Y-nZf1zKs_Nu4qRUilt1-21" value="" style="rounded=0;whiteSpace=wrap;html=1;fillColor=none;strokeWidth=2;strokeColor=#82B366;verticalAlign=top;" vertex="1" parent="1">
          <mxGeometry x="80" y="1080" width="280" height="280" as="geometry" />
        </mxCell>
        <mxCell id="Y-nZf1zKs_Nu4qRUilt1-25" value="hash" style="text;html=1;strokeColor=none;fillColor=none;align=center;verticalAlign=middle;whiteSpace=wrap;rounded=0;" vertex="1" parent="1">
          <mxGeometry x="160" y="1140" width="40" height="20" as="geometry" />
        </mxCell>
        <mxCell id="Y-nZf1zKs_Nu4qRUilt1-26" value="hash" style="text;html=1;strokeColor=none;fillColor=none;align=center;verticalAlign=middle;whiteSpace=wrap;rounded=0;" vertex="1" parent="1">
          <mxGeometry x="160" y="620" width="40" height="20" as="geometry" />
        </mxCell>
        <mxCell id="Y-nZf1zKs_Nu4qRUilt1-9" value="Data" style="strokeWidth=2;html=1;shape=mxgraph.flowchart.direct_data;whiteSpace=wrap;direction=north;fillColor=#d5e8d4;strokeColor=#82b366;" vertex="1" parent="1">
          <mxGeometry x="440" y="1180" width="40" height="40" as="geometry" />
        </mxCell>
        <mxCell id="Y-nZf1zKs_Nu4qRUilt1-10" value="Shard" style="strokeWidth=2;html=1;shape=mxgraph.flowchart.direct_data;whiteSpace=wrap;direction=west;fillColor=#d5e8d4;strokeColor=#82b366;" vertex="1" parent="1">
          <mxGeometry x="400" y="1120" width="80" height="40" as="geometry" />
        </mxCell>
        <mxCell id="Y-nZf1zKs_Nu4qRUilt1-11" value="Segment" style="rounded=1;whiteSpace=wrap;html=1;fillColor=#d5e8d4;strokeColor=#82b366;strokeWidth=2;" vertex="1" parent="1">
          <mxGeometry x="440" y="1240" width="80" height="40" as="geometry" />
        </mxCell>
        <mxCell id="Y-nZf1zKs_Nu4qRUilt1-12" value="Data" style="strokeWidth=2;html=1;shape=mxgraph.flowchart.direct_data;whiteSpace=wrap;direction=north;fillColor=#d5e8d4;strokeColor=#82b366;" vertex="1" parent="1">
          <mxGeometry x="600" y="1180" width="40" height="40" as="geometry" />
        </mxCell>
        <mxCell id="Y-nZf1zKs_Nu4qRUilt1-13" value="Data" style="strokeWidth=2;html=1;shape=mxgraph.flowchart.direct_data;whiteSpace=wrap;direction=north;fillColor=#d5e8d4;strokeColor=#82b366;" vertex="1" parent="1">
          <mxGeometry x="520" y="1180" width="40" height="40" as="geometry" />
        </mxCell>
        <mxCell id="Y-nZf1zKs_Nu4qRUilt1-14" value="Segment" style="rounded=1;whiteSpace=wrap;html=1;fillColor=#d5e8d4;strokeColor=#82b366;strokeWidth=2;" vertex="1" parent="1">
          <mxGeometry x="560" y="1240" width="80" height="40" as="geometry" />
        </mxCell>
        <mxCell id="Y-nZf1zKs_Nu4qRUilt1-15" value="Segment" style="rounded=1;whiteSpace=wrap;html=1;fillColor=#d5e8d4;strokeColor=#82b366;strokeWidth=2;" vertex="1" parent="1">
          <mxGeometry x="680" y="1240" width="80" height="40" as="geometry" />
        </mxCell>
        <mxCell id="Y-nZf1zKs_Nu4qRUilt1-16" value="" style="rounded=0;whiteSpace=wrap;html=1;fillColor=none;strokeWidth=2;strokeColor=#82B366;" vertex="1" parent="1">
          <mxGeometry x="400" y="1120" width="400" height="200" as="geometry" />
        </mxCell>
        <mxCell id="Y-nZf1zKs_Nu4qRUilt1-28" value="found it" style="edgeStyle=orthogonalEdgeStyle;rounded=0;orthogonalLoop=1;jettySize=auto;html=1;exitX=0.5;exitY=0;exitDx=0;exitDy=0;entryX=1;entryY=0.5;entryDx=0;entryDy=0;entryPerimeter=0;" edge="1" parent="1" source="Y-nZf1zKs_Nu4qRUilt1-18" target="Y-nZf1zKs_Nu4qRUilt1-13">
          <mxGeometry relative="1" as="geometry">
            <Array as="points">
              <mxPoint x="690" y="1180" />
              <mxPoint x="690" y="1170" />
              <mxPoint x="540" y="1170" />
            </Array>
          </mxGeometry>
        </mxCell>
        <mxCell id="Y-nZf1zKs_Nu4qRUilt1-18" value="Forward" style="rounded=1;whiteSpace=wrap;html=1;fillColor=#d5e8d4;strokeColor=#82b366;strokeWidth=2;" vertex="1" parent="1">
          <mxGeometry x="680" y="1180" width="60" height="40" as="geometry" />
        </mxCell>
        <mxCell id="Y-nZf1zKs_Nu4qRUilt1-19" value="Inv" style="rounded=1;whiteSpace=wrap;html=1;fillColor=#f8cecc;strokeColor=#b85450;strokeWidth=2;" vertex="1" parent="1">
          <mxGeometry x="740" y="1180" width="20" height="40" as="geometry" />
        </mxCell>
        <mxCell id="Y-nZf1zKs_Nu4qRUilt1-20" value="Segment" style="rounded=0;whiteSpace=wrap;html=1;fillColor=none;verticalAlign=top;strokeColor=#82B366;" vertex="1" parent="1">
          <mxGeometry x="660" y="1150" width="120" height="80" as="geometry" />
        </mxCell>
        <mxCell id="H_C5uYjQCkLqqmg5XiB2-4" value="Data" style="strokeWidth=2;html=1;shape=mxgraph.flowchart.direct_data;whiteSpace=wrap;direction=north;fillColor=#d5e8d4;strokeColor=#82b366;" vertex="1" parent="1">
          <mxGeometry x="440" y="660" width="40" height="40" as="geometry" />
        </mxCell>
        <mxCell id="8nIvp1J-7GYNIFCATcTi-1" value="Shard" style="strokeWidth=2;html=1;shape=mxgraph.flowchart.direct_data;whiteSpace=wrap;direction=west;fillColor=#d5e8d4;strokeColor=#82b366;" vertex="1" parent="1">
          <mxGeometry x="400" y="600" width="80" height="40" as="geometry" />
        </mxCell>
        <mxCell id="vLF6NwfQWhycEAs-ltwS-1" value="Segment" style="rounded=1;whiteSpace=wrap;html=1;fillColor=#d5e8d4;strokeColor=#82b366;strokeWidth=2;" vertex="1" parent="1">
          <mxGeometry x="440" y="720" width="80" height="40" as="geometry" />
        </mxCell>
        <mxCell id="vLF6NwfQWhycEAs-ltwS-2" value="Data" style="strokeWidth=2;html=1;shape=mxgraph.flowchart.direct_data;whiteSpace=wrap;direction=north;fillColor=#d5e8d4;strokeColor=#82b366;" vertex="1" parent="1">
          <mxGeometry x="600" y="660" width="40" height="40" as="geometry" />
        </mxCell>
        <mxCell id="vLF6NwfQWhycEAs-ltwS-3" value="Data" style="strokeWidth=2;html=1;shape=mxgraph.flowchart.direct_data;whiteSpace=wrap;direction=north;fillColor=#d5e8d4;strokeColor=#82b366;" vertex="1" parent="1">
          <mxGeometry x="520" y="660" width="40" height="40" as="geometry" />
        </mxCell>
        <mxCell id="vLF6NwfQWhycEAs-ltwS-5" value="Segment" style="rounded=1;whiteSpace=wrap;html=1;fillColor=#d5e8d4;strokeColor=#82b366;strokeWidth=2;" vertex="1" parent="1">
          <mxGeometry x="560" y="720" width="80" height="40" as="geometry" />
        </mxCell>
        <mxCell id="vLF6NwfQWhycEAs-ltwS-6" value="Segment" style="rounded=1;whiteSpace=wrap;html=1;fillColor=#d5e8d4;strokeColor=#82b366;strokeWidth=2;" vertex="1" parent="1">
          <mxGeometry x="680" y="720" width="80" height="40" as="geometry" />
        </mxCell>
        <mxCell id="vLF6NwfQWhycEAs-ltwS-13" value="" style="rounded=0;whiteSpace=wrap;html=1;fillColor=none;strokeWidth=2;strokeColor=#82B366;" vertex="1" parent="1">
          <mxGeometry x="400" y="600" width="400" height="180" as="geometry" />
        </mxCell>
        <mxCell id="yZMZEid1ng5bEGGiQRLY-1" value="Forward" style="rounded=1;whiteSpace=wrap;html=1;fillColor=#d5e8d4;strokeColor=#82b366;strokeWidth=2;" vertex="1" parent="1">
          <mxGeometry x="680" y="660" width="60" height="40" as="geometry" />
        </mxCell>
        <mxCell id="yZMZEid1ng5bEGGiQRLY-2" value="Inv" style="rounded=1;whiteSpace=wrap;html=1;fillColor=#f8cecc;strokeColor=#b85450;strokeWidth=2;" vertex="1" parent="1">
          <mxGeometry x="740" y="660" width="20" height="40" as="geometry" />
        </mxCell>
        <mxCell id="vLF6NwfQWhycEAs-ltwS-10" value="Segment" style="rounded=0;whiteSpace=wrap;html=1;fillColor=none;verticalAlign=top;strokeColor=#82B366;" vertex="1" parent="1">
          <mxGeometry x="660" y="630" width="120" height="80" as="geometry" />
        </mxCell>
        <mxCell id="Y-nZf1zKs_Nu4qRUilt1-29" value="&lt;h1&gt;How does id search (read) works in OSS&lt;/h1&gt;" style="text;html=1;strokeColor=default;fillColor=none;spacing=5;spacingTop=-20;whiteSpace=wrap;overflow=hidden;rounded=0;" vertex="1" parent="1">
          <mxGeometry x="40" y="1000" width="800" height="400" as="geometry" />
        </mxCell>
        <mxCell id="Y-nZf1zKs_Nu4qRUilt1-30" value="Shard" style="strokeWidth=2;html=1;shape=mxgraph.flowchart.direct_data;whiteSpace=wrap;direction=west;fillColor=#d5e8d4;strokeColor=#82b366;" vertex="1" parent="1">
          <mxGeometry x="240" y="1640" width="80" height="40" as="geometry" />
        </mxCell>
        <mxCell id="Y-nZf1zKs_Nu4qRUilt1-31" value="" style="rounded=0;orthogonalLoop=1;jettySize=auto;html=1;exitX=1;exitY=0.5;exitDx=0;exitDy=0;exitPerimeter=0;entryX=1;entryY=0.5;entryDx=0;entryDy=0;entryPerimeter=0;" edge="1" parent="1" target="Y-nZf1zKs_Nu4qRUilt1-30">
          <mxGeometry relative="1" as="geometry">
            <mxPoint x="160" y="1740" as="sourcePoint" />
          </mxGeometry>
        </mxCell>
        <mxCell id="Y-nZf1zKs_Nu4qRUilt1-50" style="edgeStyle=orthogonalEdgeStyle;rounded=0;orthogonalLoop=1;jettySize=auto;html=1;exitX=1;exitY=0.5;exitDx=0;exitDy=0;exitPerimeter=0;entryX=1;entryY=0.5;entryDx=0;entryDy=0;entryPerimeter=0;" edge="1" parent="1" target="Y-nZf1zKs_Nu4qRUilt1-33">
          <mxGeometry relative="1" as="geometry">
            <mxPoint x="160" y="1740" as="sourcePoint" />
          </mxGeometry>
        </mxCell>
        <mxCell id="Y-nZf1zKs_Nu4qRUilt1-51" style="rounded=0;orthogonalLoop=1;jettySize=auto;html=1;exitX=1;exitY=0.5;exitDx=0;exitDy=0;exitPerimeter=0;entryX=1;entryY=0.5;entryDx=0;entryDy=0;entryPerimeter=0;" edge="1" parent="1" target="Y-nZf1zKs_Nu4qRUilt1-34">
          <mxGeometry relative="1" as="geometry">
            <mxPoint x="160" y="1740" as="sourcePoint" />
          </mxGeometry>
        </mxCell>
        <mxCell id="Y-nZf1zKs_Nu4qRUilt1-33" value="Shard" style="strokeWidth=2;html=1;shape=mxgraph.flowchart.direct_data;whiteSpace=wrap;direction=west;fillColor=#d5e8d4;strokeColor=#82b366;" vertex="1" parent="1">
          <mxGeometry x="240" y="1720" width="80" height="40" as="geometry" />
        </mxCell>
        <mxCell id="Y-nZf1zKs_Nu4qRUilt1-34" value="Shard" style="strokeWidth=2;html=1;shape=mxgraph.flowchart.direct_data;whiteSpace=wrap;direction=west;fillColor=#d5e8d4;strokeColor=#82b366;" vertex="1" parent="1">
          <mxGeometry x="240" y="1800" width="80" height="40" as="geometry" />
        </mxCell>
        <mxCell id="Y-nZf1zKs_Nu4qRUilt1-35" value="" style="rounded=0;whiteSpace=wrap;html=1;fillColor=none;strokeWidth=2;strokeColor=#82B366;verticalAlign=top;" vertex="1" parent="1">
          <mxGeometry x="80" y="1600" width="280" height="280" as="geometry" />
        </mxCell>
        <mxCell id="Y-nZf1zKs_Nu4qRUilt1-37" value="Data" style="strokeWidth=2;html=1;shape=mxgraph.flowchart.direct_data;whiteSpace=wrap;direction=north;fillColor=#d5e8d4;strokeColor=#82b366;" vertex="1" parent="1">
          <mxGeometry x="440" y="1700" width="40" height="40" as="geometry" />
        </mxCell>
        <mxCell id="Y-nZf1zKs_Nu4qRUilt1-38" value="Shard" style="strokeWidth=2;html=1;shape=mxgraph.flowchart.direct_data;whiteSpace=wrap;direction=west;fillColor=#d5e8d4;strokeColor=#82b366;" vertex="1" parent="1">
          <mxGeometry x="400" y="1640" width="80" height="40" as="geometry" />
        </mxCell>
        <mxCell id="Y-nZf1zKs_Nu4qRUilt1-39" value="Segment" style="rounded=1;whiteSpace=wrap;html=1;fillColor=#d5e8d4;strokeColor=#82b366;strokeWidth=2;" vertex="1" parent="1">
          <mxGeometry x="440" y="1760" width="80" height="40" as="geometry" />
        </mxCell>
        <mxCell id="Y-nZf1zKs_Nu4qRUilt1-40" value="Data" style="strokeWidth=2;html=1;shape=mxgraph.flowchart.direct_data;whiteSpace=wrap;direction=north;fillColor=#d5e8d4;strokeColor=#82b366;" vertex="1" parent="1">
          <mxGeometry x="600" y="1700" width="40" height="40" as="geometry" />
        </mxCell>
        <mxCell id="Y-nZf1zKs_Nu4qRUilt1-41" value="Data" style="strokeWidth=2;html=1;shape=mxgraph.flowchart.direct_data;whiteSpace=wrap;direction=north;fillColor=#d5e8d4;strokeColor=#82b366;" vertex="1" parent="1">
          <mxGeometry x="520" y="1700" width="40" height="40" as="geometry" />
        </mxCell>
        <mxCell id="Y-nZf1zKs_Nu4qRUilt1-42" value="Segment" style="rounded=1;whiteSpace=wrap;html=1;fillColor=#d5e8d4;strokeColor=#82b366;strokeWidth=2;" vertex="1" parent="1">
          <mxGeometry x="560" y="1760" width="80" height="40" as="geometry" />
        </mxCell>
        <mxCell id="Y-nZf1zKs_Nu4qRUilt1-43" value="Segment" style="rounded=1;whiteSpace=wrap;html=1;fillColor=#d5e8d4;strokeColor=#82b366;strokeWidth=2;" vertex="1" parent="1">
          <mxGeometry x="680" y="1760" width="80" height="40" as="geometry" />
        </mxCell>
        <mxCell id="Y-nZf1zKs_Nu4qRUilt1-44" value="" style="rounded=0;whiteSpace=wrap;html=1;fillColor=none;strokeWidth=2;strokeColor=#82B366;" vertex="1" parent="1">
          <mxGeometry x="400" y="1640" width="400" height="200" as="geometry" />
        </mxCell>
        <mxCell id="Y-nZf1zKs_Nu4qRUilt1-45" value="found it" style="edgeStyle=orthogonalEdgeStyle;rounded=0;orthogonalLoop=1;jettySize=auto;html=1;exitX=0.5;exitY=0;exitDx=0;exitDy=0;entryX=1;entryY=0.5;entryDx=0;entryDy=0;entryPerimeter=0;" edge="1" parent="1" source="Y-nZf1zKs_Nu4qRUilt1-46" target="Y-nZf1zKs_Nu4qRUilt1-37">
          <mxGeometry relative="1" as="geometry">
            <Array as="points">
              <mxPoint x="690" y="1700" />
              <mxPoint x="690" y="1690" />
              <mxPoint x="460" y="1690" />
            </Array>
          </mxGeometry>
        </mxCell>
        <mxCell id="Y-nZf1zKs_Nu4qRUilt1-46" value="Forward" style="rounded=1;whiteSpace=wrap;html=1;fillColor=#d5e8d4;strokeColor=#82b366;strokeWidth=2;" vertex="1" parent="1">
          <mxGeometry x="680" y="1700" width="60" height="40" as="geometry" />
        </mxCell>
        <mxCell id="Y-nZf1zKs_Nu4qRUilt1-53" value="found it" style="edgeStyle=orthogonalEdgeStyle;rounded=0;orthogonalLoop=1;jettySize=auto;html=1;exitX=0.5;exitY=0;exitDx=0;exitDy=0;entryX=1;entryY=0.5;entryDx=0;entryDy=0;entryPerimeter=0;" edge="1" parent="1" source="Y-nZf1zKs_Nu4qRUilt1-47" target="Y-nZf1zKs_Nu4qRUilt1-41">
          <mxGeometry relative="1" as="geometry">
            <Array as="points">
              <mxPoint x="750" y="1660" />
              <mxPoint x="540" y="1660" />
            </Array>
          </mxGeometry>
        </mxCell>
        <mxCell id="Y-nZf1zKs_Nu4qRUilt1-47" value="Inv" style="rounded=1;whiteSpace=wrap;html=1;fillColor=#f8cecc;strokeColor=#b85450;strokeWidth=2;" vertex="1" parent="1">
          <mxGeometry x="740" y="1700" width="20" height="40" as="geometry" />
        </mxCell>
        <mxCell id="Y-nZf1zKs_Nu4qRUilt1-48" value="Segment" style="rounded=0;whiteSpace=wrap;html=1;fillColor=none;verticalAlign=top;strokeColor=#82B366;" vertex="1" parent="1">
          <mxGeometry x="660" y="1670" width="120" height="80" as="geometry" />
        </mxCell>
        <mxCell id="9lHkXNxrLJq0t33sKM2w-1" value="Query" style="sketch=0;pointerEvents=1;shadow=0;dashed=0;html=1;strokeColor=none;labelPosition=center;verticalLabelPosition=bottom;verticalAlign=top;align=center;fillColor=#82B366;shape=mxgraph.azure.code_file" vertex="1" parent="1">
          <mxGeometry x="120" y="1200" width="40" height="40" as="geometry" />
        </mxCell>
        <mxCell id="9lHkXNxrLJq0t33sKM2w-3" value="JSON" style="sketch=0;pointerEvents=1;shadow=0;dashed=0;html=1;strokeColor=none;labelPosition=center;verticalLabelPosition=bottom;verticalAlign=top;align=center;fillColor=#82B366;shape=mxgraph.azure.code_file" vertex="1" parent="1">
          <mxGeometry x="120" y="1720" width="40" height="40" as="geometry" />
        </mxCell>
        <mxCell id="9lHkXNxrLJq0t33sKM2w-4" value="&lt;h1&gt;How does term / range / full-text / fuzzy search (read) works in OSS&lt;/h1&gt;" style="text;html=1;strokeColor=default;fillColor=none;spacing=5;spacingTop=-20;whiteSpace=wrap;overflow=hidden;rounded=0;" vertex="1" parent="1">
          <mxGeometry x="40" y="1520" width="800" height="400" as="geometry" />
        </mxCell>
        <mxCell id="ULugvSlg4zmzQtdserlP-2" value="hello" style="swimlane;fontStyle=0;childLayout=stackLayout;horizontal=1;startSize=30;horizontalStack=0;resizeParent=1;resizeParentMax=0;resizeLast=0;collapsible=1;marginBottom=0;whiteSpace=wrap;html=1;strokeColor=default;fontSize=16;fillColor=none;" vertex="1" parent="1">
          <mxGeometry x="280" y="2440" width="80" height="90" as="geometry" />
        </mxCell>
        <mxCell id="ULugvSlg4zmzQtdserlP-3" value="id 1" style="text;strokeColor=none;fillColor=none;align=left;verticalAlign=middle;spacingLeft=4;spacingRight=4;overflow=hidden;points=[[0,0.5],[1,0.5]];portConstraint=eastwest;rotatable=0;whiteSpace=wrap;html=1;fontSize=16;" vertex="1" parent="ULugvSlg4zmzQtdserlP-2">
          <mxGeometry y="30" width="80" height="30" as="geometry" />
        </mxCell>
        <mxCell id="ULugvSlg4zmzQtdserlP-4" value="id 2" style="text;strokeColor=none;fillColor=none;align=left;verticalAlign=middle;spacingLeft=4;spacingRight=4;overflow=hidden;points=[[0,0.5],[1,0.5]];portConstraint=eastwest;rotatable=0;whiteSpace=wrap;html=1;fontSize=16;" vertex="1" parent="ULugvSlg4zmzQtdserlP-2">
          <mxGeometry y="60" width="80" height="30" as="geometry" />
        </mxCell>
        <mxCell id="ULugvSlg4zmzQtdserlP-6" value="world" style="swimlane;fontStyle=0;childLayout=stackLayout;horizontal=1;startSize=30;horizontalStack=0;resizeParent=1;resizeParentMax=0;resizeLast=0;collapsible=1;marginBottom=0;whiteSpace=wrap;html=1;strokeColor=default;fontSize=16;fillColor=none;" vertex="1" parent="1">
          <mxGeometry x="400" y="2440" width="80" height="90" as="geometry" />
        </mxCell>
        <mxCell id="ULugvSlg4zmzQtdserlP-7" value="id 2" style="text;strokeColor=none;fillColor=none;align=left;verticalAlign=middle;spacingLeft=4;spacingRight=4;overflow=hidden;points=[[0,0.5],[1,0.5]];portConstraint=eastwest;rotatable=0;whiteSpace=wrap;html=1;fontSize=16;" vertex="1" parent="ULugvSlg4zmzQtdserlP-6">
          <mxGeometry y="30" width="80" height="30" as="geometry" />
        </mxCell>
        <mxCell id="ULugvSlg4zmzQtdserlP-8" value="id 3" style="text;strokeColor=none;fillColor=none;align=left;verticalAlign=middle;spacingLeft=4;spacingRight=4;overflow=hidden;points=[[0,0.5],[1,0.5]];portConstraint=eastwest;rotatable=0;whiteSpace=wrap;html=1;fontSize=16;" vertex="1" parent="ULugvSlg4zmzQtdserlP-6">
          <mxGeometry y="60" width="80" height="30" as="geometry" />
        </mxCell>
        <mxCell id="ULugvSlg4zmzQtdserlP-9" value="&lt;b&gt;Finding&lt;/b&gt;&lt;br&gt;&lt;ul&gt;&lt;li&gt;Intersection of {1, 2} + {2, 3}&lt;/li&gt;&lt;li&gt;{2,}&lt;/li&gt;&lt;li&gt;get document by ID&lt;/li&gt;&lt;/ul&gt;" style="text;html=1;strokeColor=default;fillColor=none;align=left;verticalAlign=top;whiteSpace=wrap;rounded=0;fontSize=12;" vertex="1" parent="1">
          <mxGeometry x="560" y="2400" width="200" height="160" as="geometry" />
        </mxCell>
        <mxCell id="juL55o2etyrBQMTzC1-C-3" style="edgeStyle=orthogonalEdgeStyle;rounded=0;orthogonalLoop=1;jettySize=auto;html=1;exitX=1;exitY=0.5;exitDx=0;exitDy=0;exitPerimeter=0;entryX=0;entryY=0.5;entryDx=0;entryDy=0;" edge="1" parent="1" source="juL55o2etyrBQMTzC1-C-1" target="juL55o2etyrBQMTzC1-C-2">
          <mxGeometry relative="1" as="geometry" />
        </mxCell>
        <mxCell id="juL55o2etyrBQMTzC1-C-1" value="&quot;Hello World&quot;" style="sketch=0;pointerEvents=1;shadow=0;dashed=0;html=1;strokeColor=none;labelPosition=center;verticalLabelPosition=bottom;verticalAlign=top;align=center;fillColor=#82B366;shape=mxgraph.azure.code_file" vertex="1" parent="1">
          <mxGeometry x="120" y="2460" width="40" height="40" as="geometry" />
        </mxCell>
        <mxCell id="juL55o2etyrBQMTzC1-C-2" value="Segment" style="rounded=0;whiteSpace=wrap;html=1;fillColor=none;verticalAlign=top;" vertex="1" parent="1">
          <mxGeometry x="240" y="2400" width="280" height="160" as="geometry" />
        </mxCell>
        <mxCell id="juL55o2etyrBQMTzC1-C-4" value="doc1" style="verticalLabelPosition=bottom;html=1;verticalAlign=top;align=center;strokeColor=#82B366;fillColor=#82B366;shape=mxgraph.azure.file;pointerEvents=1;fontSize=12;" vertex="1" parent="1">
          <mxGeometry x="280" y="2200" width="40" height="40" as="geometry" />
        </mxCell>
        <mxCell id="juL55o2etyrBQMTzC1-C-5" value="doc2" style="verticalLabelPosition=bottom;html=1;verticalAlign=top;align=center;strokeColor=#82B366;fillColor=#82B366;shape=mxgraph.azure.file;pointerEvents=1;fontSize=12;" vertex="1" parent="1">
          <mxGeometry x="400" y="2200" width="40" height="40" as="geometry" />
        </mxCell>
        <mxCell id="juL55o2etyrBQMTzC1-C-6" value="doc3" style="verticalLabelPosition=bottom;html=1;verticalAlign=top;align=center;strokeColor=#82B366;fillColor=#82B366;shape=mxgraph.azure.file;pointerEvents=1;fontSize=12;" vertex="1" parent="1">
          <mxGeometry x="520" y="2200" width="40" height="40" as="geometry" />
        </mxCell>
        <mxCell id="juL55o2etyrBQMTzC1-C-7" value="&lt;b&gt;&lt;font style=&quot;font-size: 24px;&quot;&gt;.&amp;nbsp; .&amp;nbsp; .&lt;/font&gt;&lt;/b&gt;" style="text;html=1;strokeColor=none;fillColor=none;align=center;verticalAlign=middle;whiteSpace=wrap;rounded=0;" vertex="1" parent="1">
          <mxGeometry x="640" y="2200" width="80" height="40" as="geometry" />
        </mxCell>
        <mxCell id="juL55o2etyrBQMTzC1-C-10" style="edgeStyle=orthogonalEdgeStyle;rounded=0;orthogonalLoop=1;jettySize=auto;html=1;exitX=1;exitY=0.5;exitDx=0;exitDy=0;exitPerimeter=0;entryX=0;entryY=0.5;entryDx=0;entryDy=0;" edge="1" parent="1" source="juL55o2etyrBQMTzC1-C-8" target="juL55o2etyrBQMTzC1-C-9">
          <mxGeometry relative="1" as="geometry" />
        </mxCell>
        <mxCell id="juL55o2etyrBQMTzC1-C-8" value="&quot;Hello World&quot;" style="sketch=0;pointerEvents=1;shadow=0;dashed=0;html=1;strokeColor=none;labelPosition=center;verticalLabelPosition=bottom;verticalAlign=top;align=center;fillColor=#82B366;shape=mxgraph.azure.code_file" vertex="1" parent="1">
          <mxGeometry x="120" y="2200" width="40" height="40" as="geometry" />
        </mxCell>
        <mxCell id="juL55o2etyrBQMTzC1-C-9" value="is &quot;hello&quot; in content.lower() and &quot;world&quot; in content.lower()?" style="rounded=0;whiteSpace=wrap;html=1;fillColor=none;verticalAlign=top;" vertex="1" parent="1">
          <mxGeometry x="240" y="2160" width="520" height="120" as="geometry" />
        </mxCell>
        <mxCell id="juL55o2etyrBQMTzC1-C-12" value="RDBMS / Big Data System" style="rounded=0;whiteSpace=wrap;html=1;fillColor=none;verticalAlign=top;" vertex="1" parent="1">
          <mxGeometry x="80" y="2120" width="720" height="200" as="geometry" />
        </mxCell>
        <mxCell id="juL55o2etyrBQMTzC1-C-13" value="OSS" style="rounded=0;whiteSpace=wrap;html=1;fillColor=none;verticalAlign=top;" vertex="1" parent="1">
          <mxGeometry x="80" y="2360" width="720" height="240" as="geometry" />
        </mxCell>
        <mxCell id="JhBxVr7_gVXNrhBkSqaK-1" value="&lt;h1&gt;Why inverse index is optimal for full-text search?&lt;/h1&gt;" style="text;html=1;strokeColor=default;fillColor=none;spacing=5;spacingTop=-20;whiteSpace=wrap;overflow=hidden;rounded=0;" vertex="1" parent="1">
          <mxGeometry x="40" y="2040" width="800" height="600" as="geometry" />
        </mxCell>
        <mxCell id="CBBpCaeO5cO5_Q9OBIwl-1" value="&lt;font style=&quot;font-size: 24px;&quot;&gt;👀&lt;/font&gt;" style="rounded=0;whiteSpace=wrap;html=1;strokeColor=#b85450;fillColor=#f8cecc;opacity=30;verticalAlign=top;align=left;" vertex="1" parent="1">
          <mxGeometry x="10" y="20" width="80" height="80" as="geometry" />
        </mxCell>
      </root>
    </mxGraphModel>
  </diagram>
  <diagram id="Rx2fejnTjdBdfYv2IE3p" name="OSS-Domain">
    <mxGraphModel dx="1173" dy="864" grid="1" gridSize="10" guides="1" tooltips="1" connect="1" arrows="1" fold="1" page="1" pageScale="1" pageWidth="850" pageHeight="1100" math="0" shadow="0">
      <root>
        <mxCell id="0" />
        <mxCell id="1" parent="0" />
        <mxCell id="onZZZeeZkA6PDOutjgTr-1" value="&lt;b&gt;Coordinator Cluster&lt;/b&gt;" style="rounded=0;whiteSpace=wrap;html=1;fillColor=none;verticalAlign=top;" vertex="1" parent="1">
          <mxGeometry x="80" y="520" width="720" height="160" as="geometry" />
        </mxCell>
        <mxCell id="3OxxgfUacVfcJNjv4QR7-10" value="OpenSearch Domain" style="swimlane;whiteSpace=wrap;html=1;" vertex="1" parent="1">
          <mxGeometry x="40" y="440" width="800" height="720" as="geometry" />
        </mxCell>
        <mxCell id="fz09c20Z0EgMs-vLjKtn-25" value="&lt;b&gt;Data Cluster&lt;/b&gt;" style="rounded=0;whiteSpace=wrap;html=1;fillColor=none;verticalAlign=top;" vertex="1" parent="3OxxgfUacVfcJNjv4QR7-10">
          <mxGeometry x="40" y="280" width="720" height="400" as="geometry" />
        </mxCell>
        <mxCell id="fz09c20Z0EgMs-vLjKtn-23" value="" style="rounded=0;whiteSpace=wrap;html=1;fillColor=none;" vertex="1" parent="3OxxgfUacVfcJNjv4QR7-10">
          <mxGeometry x="440" y="320" width="280" height="320" as="geometry" />
        </mxCell>
        <mxCell id="jeW3pDXQJETHxpfOrSNF-1" value="OpenSearch Domain Architecture ⏰ 5 min" style="text;html=1;strokeColor=#9673a6;fillColor=#e1d5e7;align=center;verticalAlign=middle;whiteSpace=wrap;rounded=0;fontStyle=1;fontSize=16;" vertex="1" parent="1">
          <mxGeometry x="40" y="40" width="800" height="40" as="geometry" />
        </mxCell>
        <mxCell id="FjbwTnzktpgPwxfwerpq-1" value="&lt;h1&gt;OpenSearch Domain Concepts&lt;/h1&gt;&lt;p&gt;&lt;/p&gt;&lt;ul&gt;&lt;li&gt;Domain: a cluster.&lt;/li&gt;&lt;li&gt;Master Node: handle request and response, routing, coordinating, doing result aggregation.&lt;/li&gt;&lt;li&gt;Data Node: indexing and searching.&lt;/li&gt;&lt;li&gt;Replica Set: provide fault tolerance and read replica.&lt;br&gt;&lt;/li&gt;&lt;li&gt;Memory: hot index data are store in memory.&lt;/li&gt;&lt;li&gt;Disk: write document data to buffer first then flush to disk, write transaction log to disk immediately, flush index data peoridically.&lt;/li&gt;&lt;/ul&gt;&lt;p&gt;&lt;/p&gt;" style="text;html=1;strokeColor=default;fillColor=none;spacing=5;spacingTop=-20;whiteSpace=wrap;overflow=hidden;rounded=0;strokeWidth=1;" vertex="1" parent="1">
          <mxGeometry x="40" y="120" width="800" height="160" as="geometry" />
        </mxCell>
        <mxCell id="YCgPbtwbNRsiFOqTMWXN-7" value="memory" style="pointerEvents=1;shadow=0;dashed=0;html=1;strokeColor=none;fillColor=#4495D1;labelPosition=center;verticalLabelPosition=bottom;verticalAlign=top;align=center;outlineConnect=0;shape=mxgraph.veeam.ram;" vertex="1" parent="1">
          <mxGeometry x="160" y="960" width="80" height="40" as="geometry" />
        </mxCell>
        <mxCell id="YCgPbtwbNRsiFOqTMWXN-8" value="disk" style="shadow=0;dashed=0;html=1;strokeColor=none;fillColor=#4495D1;labelPosition=center;verticalLabelPosition=bottom;verticalAlign=top;align=center;outlineConnect=0;shape=mxgraph.veeam.local_disk;" vertex="1" parent="1">
          <mxGeometry x="280" y="960" width="80" height="80" as="geometry" />
        </mxCell>
        <mxCell id="I9DX9LCdri8N5rREHO91-7" value="" style="group" vertex="1" connectable="0" parent="1">
          <mxGeometry x="300" y="800" width="40" height="40" as="geometry" />
        </mxCell>
        <mxCell id="I9DX9LCdri8N5rREHO91-8" value="Replica" style="sketch=0;points=[[0,0,0],[0.25,0,0],[0.5,0,0],[0.75,0,0],[1,0,0],[0,1,0],[0.25,1,0],[0.5,1,0],[0.75,1,0],[1,1,0],[0,0.25,0],[0,0.5,0],[0,0.75,0],[1,0.25,0],[1,0.5,0],[1,0.75,0]];outlineConnect=0;gradientDirection=north;fillColor=#dae8fc;strokeColor=#6c8ebf;dashed=0;verticalLabelPosition=bottom;verticalAlign=top;align=center;html=1;fontSize=12;fontStyle=0;aspect=fixed;shape=mxgraph.aws4.resourceIcon;resIcon=mxgraph.aws4.ec2;" vertex="1" parent="I9DX9LCdri8N5rREHO91-7">
          <mxGeometry width="40" height="40" as="geometry" />
        </mxCell>
        <mxCell id="I9DX9LCdri8N5rREHO91-9" value="" style="shape=cylinder;whiteSpace=wrap;html=1;boundedLbl=1;backgroundOutline=1;fillColor=#dae8fc;strokeColor=#6c8ebf;strokeWidth=2;" vertex="1" parent="I9DX9LCdri8N5rREHO91-7">
          <mxGeometry x="15" y="15" width="10" height="10" as="geometry" />
        </mxCell>
        <mxCell id="I9DX9LCdri8N5rREHO91-11" value="" style="group" vertex="1" connectable="0" parent="1">
          <mxGeometry x="300" y="880" width="40" height="40" as="geometry" />
        </mxCell>
        <mxCell id="I9DX9LCdri8N5rREHO91-12" value="Replica" style="sketch=0;points=[[0,0,0],[0.25,0,0],[0.5,0,0],[0.75,0,0],[1,0,0],[0,1,0],[0.25,1,0],[0.5,1,0],[0.75,1,0],[1,1,0],[0,0.25,0],[0,0.5,0],[0,0.75,0],[1,0.25,0],[1,0.5,0],[1,0.75,0]];outlineConnect=0;gradientDirection=north;fillColor=#dae8fc;strokeColor=#6c8ebf;dashed=0;verticalLabelPosition=bottom;verticalAlign=top;align=center;html=1;fontSize=12;fontStyle=0;aspect=fixed;shape=mxgraph.aws4.resourceIcon;resIcon=mxgraph.aws4.ec2;" vertex="1" parent="I9DX9LCdri8N5rREHO91-11">
          <mxGeometry width="40" height="40" as="geometry" />
        </mxCell>
        <mxCell id="I9DX9LCdri8N5rREHO91-13" value="" style="shape=cylinder;whiteSpace=wrap;html=1;boundedLbl=1;backgroundOutline=1;fillColor=#dae8fc;strokeColor=#6c8ebf;strokeWidth=2;" vertex="1" parent="I9DX9LCdri8N5rREHO91-11">
          <mxGeometry x="15" y="15" width="10" height="10" as="geometry" />
        </mxCell>
        <mxCell id="YCgPbtwbNRsiFOqTMWXN-2" value="Data Node 1" style="sketch=0;points=[[0,0,0],[0.25,0,0],[0.5,0,0],[0.75,0,0],[1,0,0],[0,1,0],[0.25,1,0],[0.5,1,0],[0.75,1,0],[1,1,0],[0,0.25,0],[0,0.5,0],[0,0.75,0],[1,0.25,0],[1,0.5,0],[1,0.75,0]];outlineConnect=0;gradientDirection=north;fillColor=#dae8fc;strokeColor=#6c8ebf;dashed=0;verticalLabelPosition=bottom;verticalAlign=top;align=center;html=1;fontSize=12;fontStyle=0;aspect=fixed;shape=mxgraph.aws4.resourceIcon;resIcon=mxgraph.aws4.ec2;" vertex="1" parent="1">
          <mxGeometry x="160" y="800" width="80" height="80" as="geometry" />
        </mxCell>
        <mxCell id="YCgPbtwbNRsiFOqTMWXN-3" value="" style="shape=cylinder;whiteSpace=wrap;html=1;boundedLbl=1;backgroundOutline=1;fillColor=#dae8fc;strokeColor=#6c8ebf;strokeWidth=2;" vertex="1" parent="1">
          <mxGeometry x="190" y="830" width="20" height="20" as="geometry" />
        </mxCell>
        <mxCell id="I9DX9LCdri8N5rREHO91-14" value="" style="rounded=0;whiteSpace=wrap;html=1;fillColor=none;" vertex="1" parent="1">
          <mxGeometry x="120" y="760" width="280" height="320" as="geometry" />
        </mxCell>
        <mxCell id="3OxxgfUacVfcJNjv4QR7-1" value="flush" style="edgeStyle=orthogonalEdgeStyle;rounded=0;orthogonalLoop=1;jettySize=auto;html=1;" edge="1" parent="1" source="fz09c20Z0EgMs-vLjKtn-13" target="fz09c20Z0EgMs-vLjKtn-14">
          <mxGeometry relative="1" as="geometry" />
        </mxCell>
        <mxCell id="fz09c20Z0EgMs-vLjKtn-13" value="memory" style="pointerEvents=1;shadow=0;dashed=0;html=1;strokeColor=none;fillColor=#4495D1;labelPosition=center;verticalLabelPosition=bottom;verticalAlign=top;align=center;outlineConnect=0;shape=mxgraph.veeam.ram;" vertex="1" parent="1">
          <mxGeometry x="520" y="960" width="80" height="40" as="geometry" />
        </mxCell>
        <mxCell id="fz09c20Z0EgMs-vLjKtn-14" value="disk" style="shadow=0;dashed=0;html=1;strokeColor=none;fillColor=#4495D1;labelPosition=center;verticalLabelPosition=bottom;verticalAlign=top;align=center;outlineConnect=0;shape=mxgraph.veeam.local_disk;" vertex="1" parent="1">
          <mxGeometry x="640" y="960" width="80" height="80" as="geometry" />
        </mxCell>
        <mxCell id="fz09c20Z0EgMs-vLjKtn-15" value="" style="group" vertex="1" connectable="0" parent="1">
          <mxGeometry x="660" y="800" width="40" height="40" as="geometry" />
        </mxCell>
        <mxCell id="fz09c20Z0EgMs-vLjKtn-16" value="Replica" style="sketch=0;points=[[0,0,0],[0.25,0,0],[0.5,0,0],[0.75,0,0],[1,0,0],[0,1,0],[0.25,1,0],[0.5,1,0],[0.75,1,0],[1,1,0],[0,0.25,0],[0,0.5,0],[0,0.75,0],[1,0.25,0],[1,0.5,0],[1,0.75,0]];outlineConnect=0;gradientDirection=north;fillColor=#dae8fc;strokeColor=#6c8ebf;dashed=0;verticalLabelPosition=bottom;verticalAlign=top;align=center;html=1;fontSize=12;fontStyle=0;aspect=fixed;shape=mxgraph.aws4.resourceIcon;resIcon=mxgraph.aws4.ec2;" vertex="1" parent="fz09c20Z0EgMs-vLjKtn-15">
          <mxGeometry width="40" height="40" as="geometry" />
        </mxCell>
        <mxCell id="fz09c20Z0EgMs-vLjKtn-17" value="" style="shape=cylinder;whiteSpace=wrap;html=1;boundedLbl=1;backgroundOutline=1;fillColor=#dae8fc;strokeColor=#6c8ebf;strokeWidth=2;" vertex="1" parent="fz09c20Z0EgMs-vLjKtn-15">
          <mxGeometry x="15" y="15" width="10" height="10" as="geometry" />
        </mxCell>
        <mxCell id="fz09c20Z0EgMs-vLjKtn-18" value="" style="group" vertex="1" connectable="0" parent="1">
          <mxGeometry x="660" y="880" width="40" height="40" as="geometry" />
        </mxCell>
        <mxCell id="fz09c20Z0EgMs-vLjKtn-19" value="Replica" style="sketch=0;points=[[0,0,0],[0.25,0,0],[0.5,0,0],[0.75,0,0],[1,0,0],[0,1,0],[0.25,1,0],[0.5,1,0],[0.75,1,0],[1,1,0],[0,0.25,0],[0,0.5,0],[0,0.75,0],[1,0.25,0],[1,0.5,0],[1,0.75,0]];outlineConnect=0;gradientDirection=north;fillColor=#dae8fc;strokeColor=#6c8ebf;dashed=0;verticalLabelPosition=bottom;verticalAlign=top;align=center;html=1;fontSize=12;fontStyle=0;aspect=fixed;shape=mxgraph.aws4.resourceIcon;resIcon=mxgraph.aws4.ec2;" vertex="1" parent="fz09c20Z0EgMs-vLjKtn-18">
          <mxGeometry width="40" height="40" as="geometry" />
        </mxCell>
        <mxCell id="fz09c20Z0EgMs-vLjKtn-20" value="" style="shape=cylinder;whiteSpace=wrap;html=1;boundedLbl=1;backgroundOutline=1;fillColor=#dae8fc;strokeColor=#6c8ebf;strokeWidth=2;" vertex="1" parent="fz09c20Z0EgMs-vLjKtn-18">
          <mxGeometry x="15" y="15" width="10" height="10" as="geometry" />
        </mxCell>
        <mxCell id="CI5kAxeRRYXX6zj--XLU-1" style="rounded=0;orthogonalLoop=1;jettySize=auto;html=1;exitX=1;exitY=0.5;exitDx=0;exitDy=0;exitPerimeter=0;entryX=0;entryY=0.5;entryDx=0;entryDy=0;entryPerimeter=0;" edge="1" parent="1" source="fz09c20Z0EgMs-vLjKtn-21" target="fz09c20Z0EgMs-vLjKtn-16">
          <mxGeometry relative="1" as="geometry" />
        </mxCell>
        <mxCell id="CI5kAxeRRYXX6zj--XLU-2" style="rounded=0;orthogonalLoop=1;jettySize=auto;html=1;exitX=1;exitY=0.5;exitDx=0;exitDy=0;exitPerimeter=0;entryX=0;entryY=0.5;entryDx=0;entryDy=0;entryPerimeter=0;" edge="1" parent="1" source="fz09c20Z0EgMs-vLjKtn-21" target="fz09c20Z0EgMs-vLjKtn-19">
          <mxGeometry relative="1" as="geometry" />
        </mxCell>
        <mxCell id="MMeE23Yre5PxN5zn6JPp-2" value="write" style="edgeStyle=orthogonalEdgeStyle;rounded=0;orthogonalLoop=1;jettySize=auto;html=1;exitX=0;exitY=0.5;exitDx=0;exitDy=0;exitPerimeter=0;" edge="1" parent="1" source="fz09c20Z0EgMs-vLjKtn-21" target="fz09c20Z0EgMs-vLjKtn-13">
          <mxGeometry relative="1" as="geometry" />
        </mxCell>
        <mxCell id="fz09c20Z0EgMs-vLjKtn-21" value="Data Node 2" style="sketch=0;points=[[0,0,0],[0.25,0,0],[0.5,0,0],[0.75,0,0],[1,0,0],[0,1,0],[0.25,1,0],[0.5,1,0],[0.75,1,0],[1,1,0],[0,0.25,0],[0,0.5,0],[0,0.75,0],[1,0.25,0],[1,0.5,0],[1,0.75,0]];outlineConnect=0;gradientDirection=north;fillColor=#dae8fc;strokeColor=#6c8ebf;dashed=0;verticalLabelPosition=bottom;verticalAlign=top;align=center;html=1;fontSize=12;fontStyle=0;aspect=fixed;shape=mxgraph.aws4.resourceIcon;resIcon=mxgraph.aws4.ec2;" vertex="1" parent="1">
          <mxGeometry x="520" y="800" width="80" height="80" as="geometry" />
        </mxCell>
        <mxCell id="fz09c20Z0EgMs-vLjKtn-22" value="" style="shape=cylinder;whiteSpace=wrap;html=1;boundedLbl=1;backgroundOutline=1;fillColor=#dae8fc;strokeColor=#6c8ebf;strokeWidth=2;" vertex="1" parent="1">
          <mxGeometry x="550" y="830" width="20" height="20" as="geometry" />
        </mxCell>
        <mxCell id="YCgPbtwbNRsiFOqTMWXN-4" value="" style="group" vertex="1" connectable="0" parent="1">
          <mxGeometry x="160" y="560" width="80" height="80" as="geometry" />
        </mxCell>
        <mxCell id="YCgPbtwbNRsiFOqTMWXN-5" value="Master Node 1" style="sketch=0;points=[[0,0,0],[0.25,0,0],[0.5,0,0],[0.75,0,0],[1,0,0],[0,1,0],[0.25,1,0],[0.5,1,0],[0.75,1,0],[1,1,0],[0,0.25,0],[0,0.5,0],[0,0.75,0],[1,0.25,0],[1,0.5,0],[1,0.75,0]];outlineConnect=0;gradientDirection=north;fillColor=#e1d5e7;strokeColor=#9673a6;dashed=0;verticalLabelPosition=bottom;verticalAlign=top;align=center;html=1;fontSize=12;fontStyle=0;aspect=fixed;shape=mxgraph.aws4.resourceIcon;resIcon=mxgraph.aws4.ec2;container=0;" vertex="1" parent="YCgPbtwbNRsiFOqTMWXN-4">
          <mxGeometry width="80" height="80" as="geometry" />
        </mxCell>
        <mxCell id="YCgPbtwbNRsiFOqTMWXN-6" value="" style="html=1;verticalLabelPosition=bottom;align=center;labelBackgroundColor=#ffffff;verticalAlign=top;strokeWidth=2;strokeColor=#9673a6;shadow=0;dashed=0;shape=mxgraph.ios7.icons.flag;fillColor=#e1d5e7;container=0;" vertex="1" parent="YCgPbtwbNRsiFOqTMWXN-4">
          <mxGeometry x="30" y="30" width="20" height="20" as="geometry" />
        </mxCell>
        <mxCell id="1LGTT8kc7RM8rDOVloak-3" value="Master Node 2" style="sketch=0;points=[[0,0,0],[0.25,0,0],[0.5,0,0],[0.75,0,0],[1,0,0],[0,1,0],[0.25,1,0],[0.5,1,0],[0.75,1,0],[1,1,0],[0,0.25,0],[0,0.5,0],[0,0.75,0],[1,0.25,0],[1,0.5,0],[1,0.75,0]];outlineConnect=0;gradientDirection=north;fillColor=#e1d5e7;strokeColor=#9673a6;dashed=0;verticalLabelPosition=bottom;verticalAlign=top;align=center;html=1;fontSize=12;fontStyle=0;aspect=fixed;shape=mxgraph.aws4.resourceIcon;resIcon=mxgraph.aws4.ec2;container=0;" vertex="1" parent="1">
          <mxGeometry x="400" y="560" width="80" height="80" as="geometry" />
        </mxCell>
        <mxCell id="1LGTT8kc7RM8rDOVloak-4" value="" style="html=1;verticalLabelPosition=bottom;align=center;labelBackgroundColor=#ffffff;verticalAlign=top;strokeWidth=2;strokeColor=#9673a6;shadow=0;dashed=0;shape=mxgraph.ios7.icons.flag;fillColor=#e1d5e7;container=0;" vertex="1" parent="1">
          <mxGeometry x="430" y="590" width="20" height="20" as="geometry" />
        </mxCell>
        <mxCell id="1LGTT8kc7RM8rDOVloak-5" value="" style="group" vertex="1" connectable="0" parent="1">
          <mxGeometry x="640" y="560" width="80" height="80" as="geometry" />
        </mxCell>
        <mxCell id="1LGTT8kc7RM8rDOVloak-6" value="Master Node 3" style="sketch=0;points=[[0,0,0],[0.25,0,0],[0.5,0,0],[0.75,0,0],[1,0,0],[0,1,0],[0.25,1,0],[0.5,1,0],[0.75,1,0],[1,1,0],[0,0.25,0],[0,0.5,0],[0,0.75,0],[1,0.25,0],[1,0.5,0],[1,0.75,0]];outlineConnect=0;gradientDirection=north;fillColor=#e1d5e7;strokeColor=#9673a6;dashed=0;verticalLabelPosition=bottom;verticalAlign=top;align=center;html=1;fontSize=12;fontStyle=0;aspect=fixed;shape=mxgraph.aws4.resourceIcon;resIcon=mxgraph.aws4.ec2;container=0;" vertex="1" parent="1LGTT8kc7RM8rDOVloak-5">
          <mxGeometry width="80" height="80" as="geometry" />
        </mxCell>
        <mxCell id="1LGTT8kc7RM8rDOVloak-7" value="" style="html=1;verticalLabelPosition=bottom;align=center;labelBackgroundColor=#ffffff;verticalAlign=top;strokeWidth=2;strokeColor=#9673a6;shadow=0;dashed=0;shape=mxgraph.ios7.icons.flag;fillColor=#e1d5e7;container=0;" vertex="1" parent="1LGTT8kc7RM8rDOVloak-5">
          <mxGeometry x="30" y="30" width="20" height="20" as="geometry" />
        </mxCell>
        <mxCell id="HZ7AYq8EJ3GGZ79b63xr-1" style="rounded=0;orthogonalLoop=1;jettySize=auto;html=1;entryX=0.5;entryY=0;entryDx=0;entryDy=0;entryPerimeter=0;" edge="1" parent="1" source="tQx0LfafKlKO4Rii9sw_-1" target="YCgPbtwbNRsiFOqTMWXN-5">
          <mxGeometry relative="1" as="geometry">
            <mxPoint x="260" y="440" as="targetPoint" />
          </mxGeometry>
        </mxCell>
        <mxCell id="3OxxgfUacVfcJNjv4QR7-3" value="2" style="ellipse;whiteSpace=wrap;html=1;aspect=fixed;fillColor=#f5f5f5;fontColor=#333333;strokeColor=#666666;" vertex="1" parent="1">
          <mxGeometry x="230" y="550" width="20" height="20" as="geometry" />
        </mxCell>
        <mxCell id="3OxxgfUacVfcJNjv4QR7-4" value="3" style="ellipse;whiteSpace=wrap;html=1;aspect=fixed;fillColor=#f5f5f5;fontColor=#333333;strokeColor=#666666;" vertex="1" parent="1">
          <mxGeometry x="590" y="790" width="20" height="20" as="geometry" />
        </mxCell>
        <mxCell id="3OxxgfUacVfcJNjv4QR7-5" value="4" style="ellipse;whiteSpace=wrap;html=1;aspect=fixed;fillColor=#f5f5f5;fontColor=#333333;strokeColor=#666666;" vertex="1" parent="1">
          <mxGeometry x="690" y="790" width="20" height="20" as="geometry" />
        </mxCell>
        <mxCell id="3OxxgfUacVfcJNjv4QR7-6" value="4" style="ellipse;whiteSpace=wrap;html=1;aspect=fixed;fillColor=#f5f5f5;fontColor=#333333;strokeColor=#666666;" vertex="1" parent="1">
          <mxGeometry x="690" y="870" width="20" height="20" as="geometry" />
        </mxCell>
        <mxCell id="3OxxgfUacVfcJNjv4QR7-7" value="5" style="ellipse;whiteSpace=wrap;html=1;aspect=fixed;fillColor=#f5f5f5;fontColor=#333333;strokeColor=#666666;" vertex="1" parent="1">
          <mxGeometry x="590" y="950" width="20" height="20" as="geometry" />
        </mxCell>
        <mxCell id="3OxxgfUacVfcJNjv4QR7-8" value="6" style="ellipse;whiteSpace=wrap;html=1;aspect=fixed;fillColor=#f5f5f5;fontColor=#333333;strokeColor=#666666;" vertex="1" parent="1">
          <mxGeometry x="690" y="950" width="20" height="20" as="geometry" />
        </mxCell>
        <mxCell id="3OxxgfUacVfcJNjv4QR7-9" value="" style="rounded=0;orthogonalLoop=1;jettySize=auto;html=1;exitX=1;exitY=0.5;exitDx=0;exitDy=0;exitPerimeter=0;entryX=0.5;entryY=0;entryDx=0;entryDy=0;entryPerimeter=0;" edge="1" parent="1" source="YCgPbtwbNRsiFOqTMWXN-5" target="fz09c20Z0EgMs-vLjKtn-21">
          <mxGeometry relative="1" as="geometry">
            <mxPoint x="430" y="750" as="targetPoint" />
            <mxPoint x="240" y="600" as="sourcePoint" />
          </mxGeometry>
        </mxCell>
        <mxCell id="tQx0LfafKlKO4Rii9sw_-1" value="&lt;font color=&quot;#000000&quot;&gt;client&lt;/font&gt;" style="sketch=0;outlineConnect=0;fontColor=#ffffff;fillColor=#647687;strokeColor=#314354;dashed=0;verticalLabelPosition=bottom;verticalAlign=top;align=center;html=1;fontSize=12;fontStyle=0;pointerEvents=1;shape=mxgraph.aws4.client;" vertex="1" parent="1">
          <mxGeometry x="400" y="330" width="80" height="80" as="geometry" />
        </mxCell>
        <mxCell id="3OxxgfUacVfcJNjv4QR7-2" value="1" style="ellipse;whiteSpace=wrap;html=1;aspect=fixed;fillColor=#f5f5f5;fontColor=#333333;strokeColor=#666666;" vertex="1" parent="1">
          <mxGeometry x="470" y="320" width="20" height="20" as="geometry" />
        </mxCell>
        <mxCell id="ZFd8JnD2FY3il7wo_rbx-3" value="&lt;h1&gt;Shard and Replica&lt;/h1&gt;&lt;div&gt;&lt;ul&gt;&lt;li&gt;&lt;a href=&quot;https://www.elastic.co/guide/en/elasticsearch/reference/current/scalability.html&quot;&gt;shard is minimal unit where data is distributed around the cluster&lt;/a&gt;, you can think of shard is a CPU core or thread.&lt;/li&gt;&lt;li&gt;replica shard is a copy of a primary shard. Replicas provide redundant copies of your data to protect against hardware failure and increase capacity to serve read requests like searching or retrieving a document.&lt;/li&gt;&lt;/ul&gt;&lt;/div&gt;&lt;table style=&quot;text-align: center; background-color: initial; table-layout: fixed; font-size: 10pt; font-family: arial, sans, sans-serif; width: 0px; border-collapse: collapse; border: none;&quot; border=&quot;1&quot; dir=&quot;ltr&quot; cellpadding=&quot;0&quot; cellspacing=&quot;0&quot; xmlns=&quot;http://www.w3.org/1999/xhtml&quot;&gt;&lt;colgroup&gt;&lt;col width=&quot;100&quot;&gt;&lt;col width=&quot;100&quot;&gt;&lt;col width=&quot;100&quot;&gt;&lt;col width=&quot;100&quot;&gt;&lt;/colgroup&gt;&lt;tbody&gt;&lt;tr style=&quot;height: 21px;&quot;&gt;&lt;td style=&quot;border: 1px solid rgb(204, 204, 204); overflow: hidden; padding: 2px 3px; vertical-align: middle; background-color: rgb(99, 210, 151);&quot; data-sheets-value=&quot;{&amp;quot;1&amp;quot;:2,&amp;quot;2&amp;quot;:&amp;quot;index&amp;quot;}&quot;&gt;index&lt;/td&gt;&lt;td style=&quot;border: 1px solid rgb(204, 204, 204); overflow: hidden; padding: 2px 3px; vertical-align: middle; background-color: rgb(99, 210, 151);&quot; data-sheets-value=&quot;{&amp;quot;1&amp;quot;:2,&amp;quot;2&amp;quot;:&amp;quot;shard_id&amp;quot;}&quot;&gt;shard_id&lt;/td&gt;&lt;td style=&quot;border: 1px solid rgb(204, 204, 204); overflow: hidden; padding: 2px 3px; vertical-align: middle; background-color: rgb(99, 210, 151);&quot; data-sheets-value=&quot;{&amp;quot;1&amp;quot;:2,&amp;quot;2&amp;quot;:&amp;quot;shard_type&amp;quot;}&quot;&gt;shard_type&lt;/td&gt;&lt;td style=&quot;border: 1px solid rgb(204, 204, 204); overflow: hidden; padding: 2px 3px; vertical-align: middle; background-color: rgb(99, 210, 151);&quot; data-sheets-value=&quot;{&amp;quot;1&amp;quot;:2,&amp;quot;2&amp;quot;:&amp;quot;node_id&amp;quot;}&quot;&gt;node_id&lt;/td&gt;&lt;/tr&gt;&lt;tr style=&quot;height: 21px;&quot;&gt;&lt;td style=&quot;border: 1px solid rgb(204, 204, 204); overflow: hidden; padding: 2px 3px; vertical-align: middle; background-color: rgb(255, 255, 255);&quot; data-sheets-value=&quot;{&amp;quot;1&amp;quot;:2,&amp;quot;2&amp;quot;:&amp;quot;webpage&amp;quot;}&quot;&gt;webpage&lt;/td&gt;&lt;td style=&quot;border: 1px solid rgb(204, 204, 204); overflow: hidden; padding: 2px 3px; vertical-align: middle; background-color: rgb(234, 153, 153);&quot; data-sheets-value=&quot;{&amp;quot;1&amp;quot;:3,&amp;quot;3&amp;quot;:1}&quot;&gt;1&lt;/td&gt;&lt;td style=&quot;border: 1px solid rgb(204, 204, 204); overflow: hidden; padding: 2px 3px; vertical-align: middle; background-color: rgb(255, 255, 255); font-weight: bold;&quot; data-sheets-value=&quot;{&amp;quot;1&amp;quot;:2,&amp;quot;2&amp;quot;:&amp;quot;Primary&amp;quot;}&quot;&gt;Primary&lt;/td&gt;&lt;td style=&quot;border: 1px solid rgb(204, 204, 204); overflow: hidden; padding: 2px 3px; vertical-align: middle; background-color: rgb(234, 153, 153);&quot; data-sheets-value=&quot;{&amp;quot;1&amp;quot;:3,&amp;quot;3&amp;quot;:1}&quot;&gt;1&lt;/td&gt;&lt;/tr&gt;&lt;tr style=&quot;height: 21px;&quot;&gt;&lt;td style=&quot;border: 1px solid rgb(204, 204, 204); overflow: hidden; padding: 2px 3px; vertical-align: middle; background-color: rgb(231, 249, 239);&quot; data-sheets-value=&quot;{&amp;quot;1&amp;quot;:2,&amp;quot;2&amp;quot;:&amp;quot;webpage&amp;quot;}&quot;&gt;webpage&lt;/td&gt;&lt;td style=&quot;border: 1px solid rgb(204, 204, 204); overflow: hidden; padding: 2px 3px; vertical-align: middle; background-color: rgb(234, 153, 153);&quot; data-sheets-value=&quot;{&amp;quot;1&amp;quot;:3,&amp;quot;3&amp;quot;:1}&quot;&gt;1&lt;/td&gt;&lt;td style=&quot;border: 1px solid rgb(204, 204, 204); overflow: hidden; padding: 2px 3px; vertical-align: middle; background-color: rgb(231, 249, 239);&quot; data-sheets-value=&quot;{&amp;quot;1&amp;quot;:2,&amp;quot;2&amp;quot;:&amp;quot;Replica&amp;quot;}&quot;&gt;Replica&lt;/td&gt;&lt;td style=&quot;border: 1px solid rgb(204, 204, 204); overflow: hidden; padding: 2px 3px; vertical-align: middle; background-color: rgb(182, 215, 168);&quot; data-sheets-value=&quot;{&amp;quot;1&amp;quot;:3,&amp;quot;3&amp;quot;:2}&quot;&gt;2&lt;/td&gt;&lt;/tr&gt;&lt;tr style=&quot;height: 21px;&quot;&gt;&lt;td style=&quot;border: 1px solid rgb(204, 204, 204); overflow: hidden; padding: 2px 3px; vertical-align: middle; background-color: rgb(255, 255, 255);&quot; data-sheets-value=&quot;{&amp;quot;1&amp;quot;:2,&amp;quot;2&amp;quot;:&amp;quot;webpage&amp;quot;}&quot;&gt;webpage&lt;/td&gt;&lt;td style=&quot;border: 1px solid rgb(204, 204, 204); overflow: hidden; padding: 2px 3px; vertical-align: middle; background-color: rgb(234, 153, 153);&quot; data-sheets-value=&quot;{&amp;quot;1&amp;quot;:3,&amp;quot;3&amp;quot;:1}&quot;&gt;1&lt;/td&gt;&lt;td style=&quot;border: 1px solid rgb(204, 204, 204); overflow: hidden; padding: 2px 3px; vertical-align: middle; background-color: rgb(255, 255, 255);&quot; data-sheets-value=&quot;{&amp;quot;1&amp;quot;:2,&amp;quot;2&amp;quot;:&amp;quot;Replica&amp;quot;}&quot;&gt;Replica&lt;/td&gt;&lt;td style=&quot;border: 1px solid rgb(204, 204, 204); overflow: hidden; padding: 2px 3px; vertical-align: middle; background-color: rgb(164, 194, 244);&quot; data-sheets-value=&quot;{&amp;quot;1&amp;quot;:3,&amp;quot;3&amp;quot;:3}&quot;&gt;3&lt;/td&gt;&lt;/tr&gt;&lt;tr style=&quot;height: 21px;&quot;&gt;&lt;td style=&quot;border: 1px solid rgb(204, 204, 204); overflow: hidden; padding: 2px 3px; vertical-align: middle; background-color: rgb(231, 249, 239);&quot; data-sheets-value=&quot;{&amp;quot;1&amp;quot;:2,&amp;quot;2&amp;quot;:&amp;quot;webpage&amp;quot;}&quot;&gt;webpage&lt;/td&gt;&lt;td style=&quot;border: 1px solid rgb(204, 204, 204); overflow: hidden; padding: 2px 3px; vertical-align: middle; background-color: rgb(182, 215, 168);&quot; data-sheets-value=&quot;{&amp;quot;1&amp;quot;:3,&amp;quot;3&amp;quot;:2}&quot;&gt;2&lt;/td&gt;&lt;td style=&quot;border: 1px solid rgb(204, 204, 204); overflow: hidden; padding: 2px 3px; vertical-align: middle; background-color: rgb(231, 249, 239); font-weight: bold;&quot; data-sheets-value=&quot;{&amp;quot;1&amp;quot;:2,&amp;quot;2&amp;quot;:&amp;quot;Primary&amp;quot;}&quot;&gt;Primary&lt;/td&gt;&lt;td style=&quot;border: 1px solid rgb(204, 204, 204); overflow: hidden; padding: 2px 3px; vertical-align: middle; background-color: rgb(182, 215, 168);&quot; data-sheets-value=&quot;{&amp;quot;1&amp;quot;:3,&amp;quot;3&amp;quot;:2}&quot;&gt;2&lt;/td&gt;&lt;/tr&gt;&lt;tr style=&quot;height: 21px;&quot;&gt;&lt;td style=&quot;border: 1px solid rgb(204, 204, 204); overflow: hidden; padding: 2px 3px; vertical-align: middle; background-color: rgb(255, 255, 255);&quot; data-sheets-value=&quot;{&amp;quot;1&amp;quot;:2,&amp;quot;2&amp;quot;:&amp;quot;webpage&amp;quot;}&quot;&gt;webpage&lt;/td&gt;&lt;td style=&quot;border: 1px solid rgb(204, 204, 204); overflow: hidden; padding: 2px 3px; vertical-align: middle; background-color: rgb(182, 215, 168);&quot; data-sheets-value=&quot;{&amp;quot;1&amp;quot;:3,&amp;quot;3&amp;quot;:2}&quot;&gt;2&lt;/td&gt;&lt;td style=&quot;border: 1px solid rgb(204, 204, 204); overflow: hidden; padding: 2px 3px; vertical-align: middle; background-color: rgb(255, 255, 255);&quot; data-sheets-value=&quot;{&amp;quot;1&amp;quot;:2,&amp;quot;2&amp;quot;:&amp;quot;Replica&amp;quot;}&quot;&gt;Replica&lt;/td&gt;&lt;td style=&quot;border: 1px solid rgb(204, 204, 204); overflow: hidden; padding: 2px 3px; vertical-align: middle; background-color: rgb(164, 194, 244);&quot; data-sheets-value=&quot;{&amp;quot;1&amp;quot;:3,&amp;quot;3&amp;quot;:3}&quot;&gt;3&lt;/td&gt;&lt;/tr&gt;&lt;tr style=&quot;height: 21px;&quot;&gt;&lt;td style=&quot;border: 1px solid rgb(204, 204, 204); overflow: hidden; padding: 2px 3px; vertical-align: middle; background-color: rgb(231, 249, 239);&quot; data-sheets-value=&quot;{&amp;quot;1&amp;quot;:2,&amp;quot;2&amp;quot;:&amp;quot;webpage&amp;quot;}&quot;&gt;webpage&lt;/td&gt;&lt;td style=&quot;border: 1px solid rgb(204, 204, 204); overflow: hidden; padding: 2px 3px; vertical-align: middle; background-color: rgb(182, 215, 168);&quot; data-sheets-value=&quot;{&amp;quot;1&amp;quot;:3,&amp;quot;3&amp;quot;:2}&quot;&gt;2&lt;/td&gt;&lt;td style=&quot;border: 1px solid rgb(204, 204, 204); overflow: hidden; padding: 2px 3px; vertical-align: middle; background-color: rgb(231, 249, 239);&quot; data-sheets-value=&quot;{&amp;quot;1&amp;quot;:2,&amp;quot;2&amp;quot;:&amp;quot;Replica&amp;quot;}&quot;&gt;Replica&lt;/td&gt;&lt;td style=&quot;border: 1px solid rgb(204, 204, 204); overflow: hidden; padding: 2px 3px; vertical-align: middle; background-color: rgb(234, 153, 153);&quot; data-sheets-value=&quot;{&amp;quot;1&amp;quot;:3,&amp;quot;3&amp;quot;:1}&quot;&gt;1&lt;/td&gt;&lt;/tr&gt;&lt;tr style=&quot;height: 21px;&quot;&gt;&lt;td style=&quot;border: 1px solid rgb(204, 204, 204); overflow: hidden; padding: 2px 3px; vertical-align: middle; background-color: rgb(255, 255, 255);&quot; data-sheets-value=&quot;{&amp;quot;1&amp;quot;:2,&amp;quot;2&amp;quot;:&amp;quot;webpage&amp;quot;}&quot;&gt;webpage&lt;/td&gt;&lt;td style=&quot;border: 1px solid rgb(204, 204, 204); overflow: hidden; padding: 2px 3px; vertical-align: middle; background-color: rgb(164, 194, 244);&quot; data-sheets-value=&quot;{&amp;quot;1&amp;quot;:3,&amp;quot;3&amp;quot;:3}&quot;&gt;3&lt;/td&gt;&lt;td style=&quot;border: 1px solid rgb(204, 204, 204); overflow: hidden; padding: 2px 3px; vertical-align: middle; background-color: rgb(255, 255, 255); font-weight: bold;&quot; data-sheets-value=&quot;{&amp;quot;1&amp;quot;:2,&amp;quot;2&amp;quot;:&amp;quot;Primary&amp;quot;}&quot;&gt;Primary&lt;/td&gt;&lt;td style=&quot;border: 1px solid rgb(204, 204, 204); overflow: hidden; padding: 2px 3px; vertical-align: middle; background-color: rgb(164, 194, 244);&quot; data-sheets-value=&quot;{&amp;quot;1&amp;quot;:3,&amp;quot;3&amp;quot;:3}&quot;&gt;3&lt;/td&gt;&lt;/tr&gt;&lt;tr style=&quot;height: 21px;&quot;&gt;&lt;td style=&quot;border: 1px solid rgb(204, 204, 204); overflow: hidden; padding: 2px 3px; vertical-align: middle; background-color: rgb(231, 249, 239);&quot; data-sheets-value=&quot;{&amp;quot;1&amp;quot;:2,&amp;quot;2&amp;quot;:&amp;quot;webpage&amp;quot;}&quot;&gt;webpage&lt;/td&gt;&lt;td style=&quot;border: 1px solid rgb(204, 204, 204); overflow: hidden; padding: 2px 3px; vertical-align: middle; background-color: rgb(164, 194, 244);&quot; data-sheets-value=&quot;{&amp;quot;1&amp;quot;:3,&amp;quot;3&amp;quot;:3}&quot;&gt;3&lt;/td&gt;&lt;td style=&quot;border: 1px solid rgb(204, 204, 204); overflow: hidden; padding: 2px 3px; vertical-align: middle; background-color: rgb(231, 249, 239);&quot; data-sheets-value=&quot;{&amp;quot;1&amp;quot;:2,&amp;quot;2&amp;quot;:&amp;quot;Replica&amp;quot;}&quot;&gt;Replica&lt;/td&gt;&lt;td style=&quot;border: 1px solid rgb(204, 204, 204); overflow: hidden; padding: 2px 3px; vertical-align: middle; background-color: rgb(234, 153, 153);&quot; data-sheets-value=&quot;{&amp;quot;1&amp;quot;:3,&amp;quot;3&amp;quot;:1}&quot;&gt;1&lt;/td&gt;&lt;/tr&gt;&lt;tr style=&quot;height: 21px;&quot;&gt;&lt;td style=&quot;border: 1px solid rgb(204, 204, 204); overflow: hidden; padding: 2px 3px; vertical-align: middle; background-color: rgb(255, 255, 255);&quot; data-sheets-value=&quot;{&amp;quot;1&amp;quot;:2,&amp;quot;2&amp;quot;:&amp;quot;webpage&amp;quot;}&quot;&gt;webpage&lt;/td&gt;&lt;td style=&quot;border: 1px solid rgb(204, 204, 204); overflow: hidden; padding: 2px 3px; vertical-align: middle; background-color: rgb(164, 194, 244);&quot; data-sheets-value=&quot;{&amp;quot;1&amp;quot;:3,&amp;quot;3&amp;quot;:3}&quot;&gt;3&lt;/td&gt;&lt;td style=&quot;border: 1px solid rgb(204, 204, 204); overflow: hidden; padding: 2px 3px; vertical-align: middle; background-color: rgb(255, 255, 255);&quot; data-sheets-value=&quot;{&amp;quot;1&amp;quot;:2,&amp;quot;2&amp;quot;:&amp;quot;Replica&amp;quot;}&quot;&gt;Replica&lt;/td&gt;&lt;td style=&quot;border: 1px solid rgb(204, 204, 204); overflow: hidden; padding: 2px 3px; vertical-align: middle; background-color: rgb(182, 215, 168);&quot; data-sheets-value=&quot;{&amp;quot;1&amp;quot;:3,&amp;quot;3&amp;quot;:2}&quot;&gt;2&lt;/td&gt;&lt;/tr&gt;&lt;/tbody&gt;&lt;/table&gt;" style="text;html=1;strokeColor=default;fillColor=none;spacing=5;spacingTop=-20;whiteSpace=wrap;overflow=hidden;rounded=0;" vertex="1" parent="1">
          <mxGeometry x="40" y="1200" width="800" height="320" as="geometry" />
        </mxCell>
        <mxCell id="_-vLIjGE77WsTAhpj9WP-1" value="&lt;font style=&quot;font-size: 24px;&quot;&gt;👀&lt;/font&gt;" style="rounded=0;whiteSpace=wrap;html=1;strokeColor=#b85450;fillColor=#f8cecc;opacity=30;verticalAlign=top;align=left;" vertex="1" parent="1">
          <mxGeometry x="10" y="20" width="80" height="80" as="geometry" />
        </mxCell>
      </root>
    </mxGraphModel>
  </diagram>
  <diagram name="OSS-Serverless" id="3ghU4OJwsw_jpkBJI3mp">
    <mxGraphModel dx="1466" dy="1080" grid="1" gridSize="10" guides="1" tooltips="1" connect="1" arrows="1" fold="1" page="1" pageScale="1" pageWidth="850" pageHeight="1100" math="0" shadow="0">
      <root>
        <mxCell id="8RM1ClQOmx10_bKccHhH-0" />
        <mxCell id="8RM1ClQOmx10_bKccHhH-1" parent="8RM1ClQOmx10_bKccHhH-0" />
        <mxCell id="1AjImhXrQwS_4KGw66ZI-0" value="OpenSearch Serverless Architecture ⏰ 5 min" style="text;html=1;strokeColor=#9673a6;fillColor=#e1d5e7;align=center;verticalAlign=middle;whiteSpace=wrap;rounded=0;fontStyle=1;fontSize=16;" vertex="1" parent="8RM1ClQOmx10_bKccHhH-1">
          <mxGeometry x="40" y="40" width="800" height="40" as="geometry" />
        </mxCell>
        <mxCell id="Ca9IecRpejyGehU4cs73-0" value="&lt;h1&gt;&lt;a href=&quot;https://docs.aws.amazon.com/opensearch-service/latest/developerguide/serverless-overview.html&quot;&gt;OpenSearch Serverless Concepts&lt;/a&gt;&lt;/h1&gt;&lt;p&gt;&lt;/p&gt;&lt;ul&gt;&lt;li&gt;Collection: is a group of OpenSearch indexes. Since there&#39;s no &quot;server&quot; anymore, we should not call it &quot;cluster&quot;&lt;/li&gt;&lt;li&gt;OpenSearch compute unit (OCU): it is equivalent to 2 vCPU, 8G memory, 120G hot ephemeral storage.&lt;/li&gt;&lt;li&gt;Indexing compute unit (ICU): a special OCU just for indexing (write)&lt;/li&gt;&lt;li&gt;Search compute unit (SCU): a special OCU just for searching (read)&lt;/li&gt;&lt;li&gt;S3: it is a permanent store for data and index persistency.&lt;/li&gt;&lt;li&gt;ICU, SCU can be scaled independently. Since it uses S3, data storage is roughly unlimited.&lt;/li&gt;&lt;/ul&gt;&lt;p&gt;&lt;/p&gt;" style="text;html=1;strokeColor=default;fillColor=none;spacing=5;spacingTop=-20;whiteSpace=wrap;overflow=hidden;rounded=0;strokeWidth=1;" vertex="1" parent="8RM1ClQOmx10_bKccHhH-1">
          <mxGeometry x="40" y="120" width="800" height="160" as="geometry" />
        </mxCell>
        <mxCell id="49zHAB_xkQIwFgyJWwmd-0" value="" style="group;fontStyle=1" vertex="1" connectable="0" parent="8RM1ClQOmx10_bKccHhH-1">
          <mxGeometry x="120" y="640" width="40" height="40" as="geometry" />
        </mxCell>
        <mxCell id="49zHAB_xkQIwFgyJWwmd-1" value="" style="shape=cylinder;whiteSpace=wrap;html=1;boundedLbl=1;backgroundOutline=1;fillColor=#dae8fc;strokeColor=#6c8ebf;strokeWidth=2;" vertex="1" parent="49zHAB_xkQIwFgyJWwmd-0">
          <mxGeometry x="12" y="12" width="10" height="10" as="geometry" />
        </mxCell>
        <mxCell id="49zHAB_xkQIwFgyJWwmd-2" value="ICU" style="pointerEvents=1;shadow=0;dashed=0;html=1;strokeColor=#6c8ebf;fillColor=#dae8fc;labelPosition=center;verticalLabelPosition=bottom;verticalAlign=top;align=center;outlineConnect=0;shape=mxgraph.veeam.cpu;" vertex="1" parent="49zHAB_xkQIwFgyJWwmd-0">
          <mxGeometry width="40" height="40" as="geometry" />
        </mxCell>
        <mxCell id="49zHAB_xkQIwFgyJWwmd-3" value="" style="group" vertex="1" connectable="0" parent="8RM1ClQOmx10_bKccHhH-1">
          <mxGeometry x="440" y="640" width="40" height="40" as="geometry" />
        </mxCell>
        <mxCell id="49zHAB_xkQIwFgyJWwmd-4" value="SCU" style="pointerEvents=1;shadow=0;dashed=0;html=1;strokeColor=#9673a6;fillColor=#e1d5e7;labelPosition=center;verticalLabelPosition=bottom;verticalAlign=top;align=center;outlineConnect=0;shape=mxgraph.veeam.cpu;" vertex="1" parent="49zHAB_xkQIwFgyJWwmd-3">
          <mxGeometry width="40" height="40" as="geometry" />
        </mxCell>
        <mxCell id="49zHAB_xkQIwFgyJWwmd-5" value="" style="html=1;verticalLabelPosition=bottom;align=center;labelBackgroundColor=#ffffff;verticalAlign=top;strokeWidth=2;strokeColor=#9673a6;shadow=0;dashed=0;shape=mxgraph.ios7.icons.looking_glass;fillColor=#e1d5e7;" vertex="1" parent="49zHAB_xkQIwFgyJWwmd-3">
          <mxGeometry x="12" y="12" width="10" height="10" as="geometry" />
        </mxCell>
        <mxCell id="49zHAB_xkQIwFgyJWwmd-6" value="memory" style="pointerEvents=1;shadow=0;dashed=0;html=1;strokeColor=none;fillColor=#4495D1;labelPosition=center;verticalLabelPosition=bottom;verticalAlign=top;align=center;outlineConnect=0;shape=mxgraph.veeam.ram;" vertex="1" parent="8RM1ClQOmx10_bKccHhH-1">
          <mxGeometry x="720" y="640" width="80" height="40" as="geometry" />
        </mxCell>
        <mxCell id="49zHAB_xkQIwFgyJWwmd-7" value="disk" style="shadow=0;dashed=0;html=1;strokeColor=none;fillColor=#4495D1;labelPosition=center;verticalLabelPosition=bottom;verticalAlign=top;align=center;outlineConnect=0;shape=mxgraph.veeam.local_disk;" vertex="1" parent="8RM1ClQOmx10_bKccHhH-1">
          <mxGeometry x="720" y="780" width="80" height="80" as="geometry" />
        </mxCell>
        <mxCell id="l2UK2B2CqyEQvLbROqtO-9" style="rounded=0;orthogonalLoop=1;jettySize=auto;html=1;exitX=0.5;exitY=1;exitDx=0;exitDy=0;exitPerimeter=0;entryX=0.25;entryY=0;entryDx=0;entryDy=0;fillColor=#dae8fc;strokeColor=#6c8ebf;" edge="1" parent="8RM1ClQOmx10_bKccHhH-1" source="cMfPE6SIrzFhwzjVKxSj-0" target="7GkRo7BhVtMwZEu5ayc2-0">
          <mxGeometry relative="1" as="geometry" />
        </mxCell>
        <mxCell id="cMfPE6SIrzFhwzjVKxSj-0" value="Document" style="verticalLabelPosition=bottom;html=1;verticalAlign=top;align=center;strokeColor=#6c8ebf;fillColor=#dae8fc;shape=mxgraph.azure.file;pointerEvents=1;fontSize=12;" vertex="1" parent="8RM1ClQOmx10_bKccHhH-1">
          <mxGeometry x="280" y="400" width="40" height="40" as="geometry" />
        </mxCell>
        <mxCell id="l2UK2B2CqyEQvLbROqtO-19" style="edgeStyle=none;shape=connector;rounded=0;orthogonalLoop=1;jettySize=auto;html=1;exitX=0.5;exitY=1;exitDx=0;exitDy=0;exitPerimeter=0;entryX=0.75;entryY=0;entryDx=0;entryDy=0;labelBackgroundColor=default;strokeColor=default;fontFamily=Helvetica;fontSize=11;fontColor=default;endArrow=classic;" edge="1" parent="8RM1ClQOmx10_bKccHhH-1" source="cMfPE6SIrzFhwzjVKxSj-1" target="7GkRo7BhVtMwZEu5ayc2-0">
          <mxGeometry relative="1" as="geometry" />
        </mxCell>
        <mxCell id="cMfPE6SIrzFhwzjVKxSj-1" value="Query" style="sketch=0;pointerEvents=1;shadow=0;dashed=0;html=1;strokeColor=#9673a6;labelPosition=center;verticalLabelPosition=bottom;verticalAlign=top;align=center;fillColor=#e1d5e7;shape=mxgraph.azure.code_file" vertex="1" parent="8RM1ClQOmx10_bKccHhH-1">
          <mxGeometry x="440" y="400" width="40" height="40" as="geometry" />
        </mxCell>
        <mxCell id="l2UK2B2CqyEQvLbROqtO-15" style="edgeStyle=none;shape=connector;rounded=0;orthogonalLoop=1;jettySize=auto;html=1;exitX=0.25;exitY=1;exitDx=0;exitDy=0;labelBackgroundColor=default;strokeColor=default;fontFamily=Helvetica;fontSize=11;fontColor=default;endArrow=classic;" edge="1" parent="8RM1ClQOmx10_bKccHhH-1" source="7GkRo7BhVtMwZEu5ayc2-0" target="Kz0Iv9asr43YIct6IMN5-2">
          <mxGeometry relative="1" as="geometry" />
        </mxCell>
        <mxCell id="l2UK2B2CqyEQvLbROqtO-20" style="edgeStyle=none;shape=connector;rounded=0;orthogonalLoop=1;jettySize=auto;html=1;exitX=0.75;exitY=1;exitDx=0;exitDy=0;labelBackgroundColor=default;strokeColor=default;fontFamily=Helvetica;fontSize=11;fontColor=default;endArrow=classic;" edge="1" parent="8RM1ClQOmx10_bKccHhH-1" source="7GkRo7BhVtMwZEu5ayc2-0" target="Kz0Iv9asr43YIct6IMN5-7">
          <mxGeometry relative="1" as="geometry" />
        </mxCell>
        <mxCell id="l2UK2B2CqyEQvLbROqtO-21" style="edgeStyle=none;shape=connector;rounded=0;orthogonalLoop=1;jettySize=auto;html=1;exitX=0.75;exitY=1;exitDx=0;exitDy=0;labelBackgroundColor=default;strokeColor=default;fontFamily=Helvetica;fontSize=11;fontColor=default;endArrow=classic;" edge="1" parent="8RM1ClQOmx10_bKccHhH-1" source="7GkRo7BhVtMwZEu5ayc2-0" target="49zHAB_xkQIwFgyJWwmd-4">
          <mxGeometry relative="1" as="geometry" />
        </mxCell>
        <mxCell id="l2UK2B2CqyEQvLbROqtO-22" style="edgeStyle=none;shape=connector;rounded=0;orthogonalLoop=1;jettySize=auto;html=1;exitX=0.75;exitY=1;exitDx=0;exitDy=0;labelBackgroundColor=default;strokeColor=default;fontFamily=Helvetica;fontSize=11;fontColor=default;endArrow=classic;" edge="1" parent="8RM1ClQOmx10_bKccHhH-1" source="7GkRo7BhVtMwZEu5ayc2-0" target="Kz0Iv9asr43YIct6IMN5-10">
          <mxGeometry relative="1" as="geometry" />
        </mxCell>
        <mxCell id="7GkRo7BhVtMwZEu5ayc2-0" value="Service&amp;nbsp;" style="rounded=0;whiteSpace=wrap;html=1;" vertex="1" parent="8RM1ClQOmx10_bKccHhH-1">
          <mxGeometry x="80" y="520" width="600" height="40" as="geometry" />
        </mxCell>
        <mxCell id="Kz0Iv9asr43YIct6IMN5-0" value="" style="group;fontStyle=1" vertex="1" connectable="0" parent="8RM1ClQOmx10_bKccHhH-1">
          <mxGeometry x="200" y="640" width="40" height="40" as="geometry" />
        </mxCell>
        <mxCell id="Kz0Iv9asr43YIct6IMN5-1" value="" style="shape=cylinder;whiteSpace=wrap;html=1;boundedLbl=1;backgroundOutline=1;fillColor=#dae8fc;strokeColor=#6c8ebf;strokeWidth=2;" vertex="1" parent="Kz0Iv9asr43YIct6IMN5-0">
          <mxGeometry x="12" y="12" width="10" height="10" as="geometry" />
        </mxCell>
        <mxCell id="Kz0Iv9asr43YIct6IMN5-2" value="ICU" style="pointerEvents=1;shadow=0;dashed=0;html=1;strokeColor=#6c8ebf;fillColor=#dae8fc;labelPosition=center;verticalLabelPosition=bottom;verticalAlign=top;align=center;outlineConnect=0;shape=mxgraph.veeam.cpu;" vertex="1" parent="Kz0Iv9asr43YIct6IMN5-0">
          <mxGeometry width="40" height="40" as="geometry" />
        </mxCell>
        <mxCell id="Kz0Iv9asr43YIct6IMN5-3" value="" style="group;fontStyle=1" vertex="1" connectable="0" parent="8RM1ClQOmx10_bKccHhH-1">
          <mxGeometry x="280" y="640" width="40" height="40" as="geometry" />
        </mxCell>
        <mxCell id="Kz0Iv9asr43YIct6IMN5-4" value="" style="shape=cylinder;whiteSpace=wrap;html=1;boundedLbl=1;backgroundOutline=1;fillColor=#dae8fc;strokeColor=#6c8ebf;strokeWidth=2;" vertex="1" parent="Kz0Iv9asr43YIct6IMN5-3">
          <mxGeometry x="12" y="12" width="10" height="10" as="geometry" />
        </mxCell>
        <mxCell id="Kz0Iv9asr43YIct6IMN5-5" value="ICU" style="pointerEvents=1;shadow=0;dashed=0;html=1;strokeColor=#6c8ebf;fillColor=#dae8fc;labelPosition=center;verticalLabelPosition=bottom;verticalAlign=top;align=center;outlineConnect=0;shape=mxgraph.veeam.cpu;" vertex="1" parent="Kz0Iv9asr43YIct6IMN5-3">
          <mxGeometry width="40" height="40" as="geometry" />
        </mxCell>
        <mxCell id="Kz0Iv9asr43YIct6IMN5-6" value="" style="group" vertex="1" connectable="0" parent="8RM1ClQOmx10_bKccHhH-1">
          <mxGeometry x="520" y="640" width="40" height="40" as="geometry" />
        </mxCell>
        <mxCell id="Kz0Iv9asr43YIct6IMN5-7" value="SCU" style="pointerEvents=1;shadow=0;dashed=0;html=1;strokeColor=#9673a6;fillColor=#e1d5e7;labelPosition=center;verticalLabelPosition=bottom;verticalAlign=top;align=center;outlineConnect=0;shape=mxgraph.veeam.cpu;" vertex="1" parent="Kz0Iv9asr43YIct6IMN5-6">
          <mxGeometry width="40" height="40" as="geometry" />
        </mxCell>
        <mxCell id="Kz0Iv9asr43YIct6IMN5-8" value="" style="html=1;verticalLabelPosition=bottom;align=center;labelBackgroundColor=#ffffff;verticalAlign=top;strokeWidth=2;strokeColor=#9673a6;shadow=0;dashed=0;shape=mxgraph.ios7.icons.looking_glass;fillColor=#e1d5e7;" vertex="1" parent="Kz0Iv9asr43YIct6IMN5-6">
          <mxGeometry x="12" y="12" width="10" height="10" as="geometry" />
        </mxCell>
        <mxCell id="Kz0Iv9asr43YIct6IMN5-9" value="" style="group" vertex="1" connectable="0" parent="8RM1ClQOmx10_bKccHhH-1">
          <mxGeometry x="600" y="640" width="40" height="40" as="geometry" />
        </mxCell>
        <mxCell id="Kz0Iv9asr43YIct6IMN5-10" value="SCU" style="pointerEvents=1;shadow=0;dashed=0;html=1;strokeColor=#9673a6;fillColor=#e1d5e7;labelPosition=center;verticalLabelPosition=bottom;verticalAlign=top;align=center;outlineConnect=0;shape=mxgraph.veeam.cpu;" vertex="1" parent="Kz0Iv9asr43YIct6IMN5-9">
          <mxGeometry width="40" height="40" as="geometry" />
        </mxCell>
        <mxCell id="Kz0Iv9asr43YIct6IMN5-11" value="" style="html=1;verticalLabelPosition=bottom;align=center;labelBackgroundColor=#ffffff;verticalAlign=top;strokeWidth=2;strokeColor=#9673a6;shadow=0;dashed=0;shape=mxgraph.ios7.icons.looking_glass;fillColor=#e1d5e7;" vertex="1" parent="Kz0Iv9asr43YIct6IMN5-9">
          <mxGeometry x="12" y="12" width="10" height="10" as="geometry" />
        </mxCell>
        <mxCell id="Kz0Iv9asr43YIct6IMN5-12" value="Searching" style="rounded=0;whiteSpace=wrap;html=1;fillColor=none;verticalAlign=top;" vertex="1" parent="8RM1ClQOmx10_bKccHhH-1">
          <mxGeometry x="400" y="600" width="280" height="120" as="geometry" />
        </mxCell>
        <mxCell id="Kz0Iv9asr43YIct6IMN5-13" value="Indexing" style="rounded=0;whiteSpace=wrap;html=1;fillColor=none;verticalAlign=top;" vertex="1" parent="8RM1ClQOmx10_bKccHhH-1">
          <mxGeometry x="80" y="600" width="280" height="120" as="geometry" />
        </mxCell>
        <mxCell id="l2UK2B2CqyEQvLbROqtO-0" value="" style="sketch=0;outlineConnect=0;fontColor=#232F3E;gradientColor=none;fillColor=#3F8624;strokeColor=none;dashed=0;verticalLabelPosition=bottom;verticalAlign=top;align=center;html=1;fontSize=12;fontStyle=0;pointerEvents=1;shape=mxgraph.aws4.bucket_with_objects;" vertex="1" parent="8RM1ClQOmx10_bKccHhH-1">
          <mxGeometry x="120" y="800" width="40" height="40" as="geometry" />
        </mxCell>
        <mxCell id="l2UK2B2CqyEQvLbROqtO-1" value="" style="sketch=0;outlineConnect=0;fontColor=#232F3E;gradientColor=none;fillColor=#3F8624;strokeColor=none;dashed=0;verticalLabelPosition=bottom;verticalAlign=top;align=center;html=1;fontSize=12;fontStyle=0;pointerEvents=1;shape=mxgraph.aws4.bucket_with_objects;" vertex="1" parent="8RM1ClQOmx10_bKccHhH-1">
          <mxGeometry x="200" y="800" width="40" height="40" as="geometry" />
        </mxCell>
        <mxCell id="l2UK2B2CqyEQvLbROqtO-2" value="" style="sketch=0;outlineConnect=0;fontColor=#232F3E;gradientColor=none;fillColor=#3F8624;strokeColor=none;dashed=0;verticalLabelPosition=bottom;verticalAlign=top;align=center;html=1;fontSize=12;fontStyle=0;pointerEvents=1;shape=mxgraph.aws4.bucket_with_objects;" vertex="1" parent="8RM1ClQOmx10_bKccHhH-1">
          <mxGeometry x="280" y="800" width="40" height="40" as="geometry" />
        </mxCell>
        <mxCell id="l2UK2B2CqyEQvLbROqtO-4" value="" style="sketch=0;outlineConnect=0;fontColor=#232F3E;gradientColor=none;fillColor=#3F8624;strokeColor=none;dashed=0;verticalLabelPosition=bottom;verticalAlign=top;align=center;html=1;fontSize=12;fontStyle=0;pointerEvents=1;shape=mxgraph.aws4.bucket_with_objects;" vertex="1" parent="8RM1ClQOmx10_bKccHhH-1">
          <mxGeometry x="360" y="800" width="40" height="40" as="geometry" />
        </mxCell>
        <mxCell id="l2UK2B2CqyEQvLbROqtO-5" value="" style="sketch=0;outlineConnect=0;fontColor=#232F3E;gradientColor=none;fillColor=#3F8624;strokeColor=none;dashed=0;verticalLabelPosition=bottom;verticalAlign=top;align=center;html=1;fontSize=12;fontStyle=0;pointerEvents=1;shape=mxgraph.aws4.bucket_with_objects;" vertex="1" parent="8RM1ClQOmx10_bKccHhH-1">
          <mxGeometry x="440" y="800" width="40" height="40" as="geometry" />
        </mxCell>
        <mxCell id="l2UK2B2CqyEQvLbROqtO-6" value="" style="sketch=0;outlineConnect=0;fontColor=#232F3E;gradientColor=none;fillColor=#3F8624;strokeColor=none;dashed=0;verticalLabelPosition=bottom;verticalAlign=top;align=center;html=1;fontSize=12;fontStyle=0;pointerEvents=1;shape=mxgraph.aws4.bucket_with_objects;" vertex="1" parent="8RM1ClQOmx10_bKccHhH-1">
          <mxGeometry x="520" y="800" width="40" height="40" as="geometry" />
        </mxCell>
        <mxCell id="l2UK2B2CqyEQvLbROqtO-7" value="" style="sketch=0;outlineConnect=0;fontColor=#232F3E;gradientColor=none;fillColor=#3F8624;strokeColor=none;dashed=0;verticalLabelPosition=bottom;verticalAlign=top;align=center;html=1;fontSize=12;fontStyle=0;pointerEvents=1;shape=mxgraph.aws4.bucket_with_objects;" vertex="1" parent="8RM1ClQOmx10_bKccHhH-1">
          <mxGeometry x="600" y="800" width="40" height="40" as="geometry" />
        </mxCell>
        <mxCell id="l2UK2B2CqyEQvLbROqtO-8" value="Amazon S3" style="rounded=0;whiteSpace=wrap;html=1;fillColor=none;verticalAlign=top;" vertex="1" parent="8RM1ClQOmx10_bKccHhH-1">
          <mxGeometry x="80" y="760" width="600" height="120" as="geometry" />
        </mxCell>
        <mxCell id="l2UK2B2CqyEQvLbROqtO-16" style="edgeStyle=none;shape=connector;rounded=0;orthogonalLoop=1;jettySize=auto;html=1;labelBackgroundColor=default;strokeColor=default;fontFamily=Helvetica;fontSize=11;fontColor=default;endArrow=classic;" edge="1" parent="8RM1ClQOmx10_bKccHhH-1" source="Kz0Iv9asr43YIct6IMN5-2" target="49zHAB_xkQIwFgyJWwmd-2">
          <mxGeometry relative="1" as="geometry" />
        </mxCell>
        <mxCell id="l2UK2B2CqyEQvLbROqtO-17" style="edgeStyle=none;shape=connector;rounded=0;orthogonalLoop=1;jettySize=auto;html=1;labelBackgroundColor=default;strokeColor=default;fontFamily=Helvetica;fontSize=11;fontColor=default;endArrow=classic;" edge="1" parent="8RM1ClQOmx10_bKccHhH-1" source="Kz0Iv9asr43YIct6IMN5-2" target="Kz0Iv9asr43YIct6IMN5-5">
          <mxGeometry relative="1" as="geometry" />
        </mxCell>
        <mxCell id="l2UK2B2CqyEQvLbROqtO-18" style="edgeStyle=none;shape=connector;rounded=0;orthogonalLoop=1;jettySize=auto;html=1;labelBackgroundColor=default;strokeColor=default;fontFamily=Helvetica;fontSize=11;fontColor=default;endArrow=classic;" edge="1" parent="8RM1ClQOmx10_bKccHhH-1" source="Kz0Iv9asr43YIct6IMN5-2" target="l2UK2B2CqyEQvLbROqtO-2">
          <mxGeometry relative="1" as="geometry" />
        </mxCell>
        <mxCell id="l2UK2B2CqyEQvLbROqtO-23" style="edgeStyle=none;shape=connector;rounded=0;orthogonalLoop=1;jettySize=auto;html=1;labelBackgroundColor=default;strokeColor=default;fontFamily=Helvetica;fontSize=11;fontColor=default;endArrow=classic;" edge="1" parent="8RM1ClQOmx10_bKccHhH-1" source="49zHAB_xkQIwFgyJWwmd-4" target="l2UK2B2CqyEQvLbROqtO-1">
          <mxGeometry relative="1" as="geometry" />
        </mxCell>
        <mxCell id="l2UK2B2CqyEQvLbROqtO-24" style="edgeStyle=none;shape=connector;rounded=0;orthogonalLoop=1;jettySize=auto;html=1;labelBackgroundColor=default;strokeColor=default;fontFamily=Helvetica;fontSize=11;fontColor=default;endArrow=classic;" edge="1" parent="8RM1ClQOmx10_bKccHhH-1" source="Kz0Iv9asr43YIct6IMN5-7" target="l2UK2B2CqyEQvLbROqtO-5">
          <mxGeometry relative="1" as="geometry" />
        </mxCell>
        <mxCell id="l2UK2B2CqyEQvLbROqtO-25" style="edgeStyle=none;shape=connector;rounded=0;orthogonalLoop=1;jettySize=auto;html=1;labelBackgroundColor=default;strokeColor=default;fontFamily=Helvetica;fontSize=11;fontColor=default;endArrow=classic;" edge="1" parent="8RM1ClQOmx10_bKccHhH-1" source="Kz0Iv9asr43YIct6IMN5-10" target="l2UK2B2CqyEQvLbROqtO-7">
          <mxGeometry relative="1" as="geometry" />
        </mxCell>
        <mxCell id="Owl5lJNOjtY2Pc8hjOKE-0" value="1" style="ellipse;whiteSpace=wrap;html=1;aspect=fixed;fontFamily=Helvetica;fontSize=11;fillColor=#dae8fc;strokeColor=#6c8ebf;" vertex="1" parent="8RM1ClQOmx10_bKccHhH-1">
          <mxGeometry x="310" y="390" width="20" height="20" as="geometry" />
        </mxCell>
        <mxCell id="Owl5lJNOjtY2Pc8hjOKE-1" value="2" style="ellipse;whiteSpace=wrap;html=1;aspect=fixed;fontFamily=Helvetica;fontSize=11;fillColor=#dae8fc;strokeColor=#6c8ebf;" vertex="1" parent="8RM1ClQOmx10_bKccHhH-1">
          <mxGeometry x="230" y="630" width="20" height="20" as="geometry" />
        </mxCell>
        <mxCell id="Owl5lJNOjtY2Pc8hjOKE-2" value="3" style="ellipse;whiteSpace=wrap;html=1;aspect=fixed;fontFamily=Helvetica;fontSize=11;fillColor=#dae8fc;strokeColor=#6c8ebf;" vertex="1" parent="8RM1ClQOmx10_bKccHhH-1">
          <mxGeometry x="150" y="630" width="20" height="20" as="geometry" />
        </mxCell>
        <mxCell id="Owl5lJNOjtY2Pc8hjOKE-3" value="3" style="ellipse;whiteSpace=wrap;html=1;aspect=fixed;fontFamily=Helvetica;fontSize=11;fillColor=#dae8fc;strokeColor=#6c8ebf;" vertex="1" parent="8RM1ClQOmx10_bKccHhH-1">
          <mxGeometry x="310" y="630" width="20" height="20" as="geometry" />
        </mxCell>
        <mxCell id="Owl5lJNOjtY2Pc8hjOKE-4" value="4" style="ellipse;whiteSpace=wrap;html=1;aspect=fixed;fontFamily=Helvetica;fontSize=11;fillColor=#dae8fc;strokeColor=#6c8ebf;" vertex="1" parent="8RM1ClQOmx10_bKccHhH-1">
          <mxGeometry x="310" y="790" width="20" height="20" as="geometry" />
        </mxCell>
        <mxCell id="Owl5lJNOjtY2Pc8hjOKE-5" value="1" style="ellipse;whiteSpace=wrap;html=1;aspect=fixed;fontFamily=Helvetica;fontSize=11;fillColor=#e1d5e7;strokeColor=#9673a6;" vertex="1" parent="8RM1ClQOmx10_bKccHhH-1">
          <mxGeometry x="470" y="390" width="20" height="20" as="geometry" />
        </mxCell>
        <mxCell id="Owl5lJNOjtY2Pc8hjOKE-6" value="2" style="ellipse;whiteSpace=wrap;html=1;aspect=fixed;fontFamily=Helvetica;fontSize=11;fillColor=#e1d5e7;strokeColor=#9673a6;" vertex="1" parent="8RM1ClQOmx10_bKccHhH-1">
          <mxGeometry x="480" y="630" width="20" height="20" as="geometry" />
        </mxCell>
        <mxCell id="Owl5lJNOjtY2Pc8hjOKE-7" value="2" style="ellipse;whiteSpace=wrap;html=1;aspect=fixed;fontFamily=Helvetica;fontSize=11;fillColor=#e1d5e7;strokeColor=#9673a6;" vertex="1" parent="8RM1ClQOmx10_bKccHhH-1">
          <mxGeometry x="550" y="630" width="20" height="20" as="geometry" />
        </mxCell>
        <mxCell id="Owl5lJNOjtY2Pc8hjOKE-8" value="2" style="ellipse;whiteSpace=wrap;html=1;aspect=fixed;fontFamily=Helvetica;fontSize=11;fillColor=#e1d5e7;strokeColor=#9673a6;" vertex="1" parent="8RM1ClQOmx10_bKccHhH-1">
          <mxGeometry x="630" y="630" width="20" height="20" as="geometry" />
        </mxCell>
        <mxCell id="Owl5lJNOjtY2Pc8hjOKE-9" value="3" style="ellipse;whiteSpace=wrap;html=1;aspect=fixed;fontFamily=Helvetica;fontSize=11;fillColor=#e1d5e7;strokeColor=#9673a6;" vertex="1" parent="8RM1ClQOmx10_bKccHhH-1">
          <mxGeometry x="220" y="790" width="20" height="20" as="geometry" />
        </mxCell>
        <mxCell id="Owl5lJNOjtY2Pc8hjOKE-10" value="3" style="ellipse;whiteSpace=wrap;html=1;aspect=fixed;fontFamily=Helvetica;fontSize=11;fillColor=#e1d5e7;strokeColor=#9673a6;" vertex="1" parent="8RM1ClQOmx10_bKccHhH-1">
          <mxGeometry x="480" y="790" width="20" height="20" as="geometry" />
        </mxCell>
        <mxCell id="Owl5lJNOjtY2Pc8hjOKE-11" value="3" style="ellipse;whiteSpace=wrap;html=1;aspect=fixed;fontFamily=Helvetica;fontSize=11;fillColor=#e1d5e7;strokeColor=#9673a6;" vertex="1" parent="8RM1ClQOmx10_bKccHhH-1">
          <mxGeometry x="630" y="790" width="20" height="20" as="geometry" />
        </mxCell>
        <mxCell id="WaRe_aQvyc70VBX-TMdM-0" value="&lt;b&gt;OpenSearch Serverless Collection&lt;/b&gt;" style="rounded=0;whiteSpace=wrap;html=1;fontFamily=Helvetica;fontSize=11;fontColor=default;fillColor=none;verticalAlign=top;" vertex="1" parent="8RM1ClQOmx10_bKccHhH-1">
          <mxGeometry x="40" y="480" width="800" height="440" as="geometry" />
        </mxCell>
        <mxCell id="53QkvaxUANrE1N8whXEP-0" value="&lt;font style=&quot;font-size: 24px;&quot;&gt;👀&lt;/font&gt;" style="rounded=0;whiteSpace=wrap;html=1;strokeColor=#b85450;fillColor=#f8cecc;opacity=30;verticalAlign=top;align=left;" vertex="1" parent="8RM1ClQOmx10_bKccHhH-1">
          <mxGeometry x="10" y="20" width="80" height="80" as="geometry" />
        </mxCell>
      </root>
    </mxGraphModel>
  </diagram>
  <diagram id="4RFT3Z0uqcVlg-0ej5yS" name="Ingestion">
    <mxGraphModel dx="1173" dy="864" grid="1" gridSize="10" guides="1" tooltips="1" connect="1" arrows="1" fold="1" page="1" pageScale="1" pageWidth="850" pageHeight="1100" math="0" shadow="0">
      <root>
        <mxCell id="0" />
        <mxCell id="1" parent="0" />
        <mxCell id="lenC1VuZjVZI06oC55cN-1" value="Custom Code" style="rounded=0;whiteSpace=wrap;html=1;fillColor=none;" parent="1" vertex="1">
          <mxGeometry x="240" y="880" width="120" height="80" as="geometry" />
        </mxCell>
        <mxCell id="lenC1VuZjVZI06oC55cN-2" value="&lt;a href=&quot;https://docs.aws.amazon.com/glue/latest/ug/tutorial-elastisearch-connector.html&quot;&gt;Connector&lt;/a&gt;" style="rounded=0;whiteSpace=wrap;html=1;fillColor=none;" parent="1" vertex="1">
          <mxGeometry x="520" y="880" width="120" height="80" as="geometry" />
        </mxCell>
        <mxCell id="lenC1VuZjVZI06oC55cN-3" value="&lt;a href=&quot;https://github.com/MacHu-GWU/aws_dla_opensearch_examples/blob/main/tutorial/02-Basic-OpenSearch-API/02-Document-API/e1_single_doc_crud_api.py&quot;&gt;Single doc API&lt;/a&gt;" style="rounded=0;whiteSpace=wrap;html=1;fillColor=none;" parent="1" vertex="1">
          <mxGeometry x="240" y="640" width="120" height="80" as="geometry" />
        </mxCell>
        <mxCell id="T1zNOxccJV69avQgIYDY-17" style="edgeStyle=orthogonalEdgeStyle;rounded=0;orthogonalLoop=1;jettySize=auto;html=1;exitX=1;exitY=0.5;exitDx=0;exitDy=0;exitPerimeter=0;entryX=0;entryY=0.5;entryDx=0;entryDy=0;entryPerimeter=0;fontSize=12;" parent="1" source="lenC1VuZjVZI06oC55cN-4" target="T1zNOxccJV69avQgIYDY-11" edge="1">
          <mxGeometry relative="1" as="geometry" />
        </mxCell>
        <mxCell id="lenC1VuZjVZI06oC55cN-4" value="Lambda" style="sketch=0;points=[[0,0,0],[0.25,0,0],[0.5,0,0],[0.75,0,0],[1,0,0],[0,1,0],[0.25,1,0],[0.5,1,0],[0.75,1,0],[1,1,0],[0,0.25,0],[0,0.5,0],[0,0.75,0],[1,0.25,0],[1,0.5,0],[1,0.75,0]];outlineConnect=0;fontColor=#232F3E;gradientColor=#F78E04;gradientDirection=north;fillColor=#D05C17;strokeColor=#ffffff;dashed=0;verticalLabelPosition=bottom;verticalAlign=top;align=center;html=1;fontSize=12;fontStyle=0;aspect=fixed;shape=mxgraph.aws4.resourceIcon;resIcon=mxgraph.aws4.lambda;" parent="1" vertex="1">
          <mxGeometry x="400" y="1180" width="80" height="80" as="geometry" />
        </mxCell>
        <mxCell id="T1zNOxccJV69avQgIYDY-18" style="edgeStyle=orthogonalEdgeStyle;rounded=0;orthogonalLoop=1;jettySize=auto;html=1;exitX=1;exitY=0.5;exitDx=0;exitDy=0;exitPerimeter=0;fontSize=12;" parent="1" source="lenC1VuZjVZI06oC55cN-5" target="T1zNOxccJV69avQgIYDY-11" edge="1">
          <mxGeometry relative="1" as="geometry" />
        </mxCell>
        <mxCell id="lenC1VuZjVZI06oC55cN-5" value="Glue" style="sketch=0;points=[[0,0,0],[0.25,0,0],[0.5,0,0],[0.75,0,0],[1,0,0],[0,1,0],[0.25,1,0],[0.5,1,0],[0.75,1,0],[1,1,0],[0,0.25,0],[0,0.5,0],[0,0.75,0],[1,0.25,0],[1,0.5,0],[1,0.75,0]];outlineConnect=0;fontColor=#232F3E;gradientColor=#945DF2;gradientDirection=north;fillColor=#5A30B5;strokeColor=#ffffff;dashed=0;verticalLabelPosition=bottom;verticalAlign=top;align=center;html=1;fontSize=12;fontStyle=0;aspect=fixed;shape=mxgraph.aws4.resourceIcon;resIcon=mxgraph.aws4.glue;" parent="1" vertex="1">
          <mxGeometry x="400" y="1340" width="80" height="80" as="geometry" />
        </mxCell>
        <mxCell id="Dh41lK2NPH2CS-LkhLI7-1" value="&lt;h1&gt;&lt;a href=&quot;https://opensearch.org/docs/latest/field-types/mappings/&quot;&gt;Mapping&lt;/a&gt;&lt;/h1&gt;&lt;p&gt;&lt;/p&gt;&lt;ul&gt;&lt;li&gt;&lt;a href=&quot;https://opensearch.org/docs/latest/field-types/mappings/#dynamic-mapping&quot;&gt;Dynamic mapping&lt;/a&gt;&lt;br&gt;&lt;/li&gt;&lt;li&gt;&lt;a href=&quot;https://opensearch.org/docs/latest/field-types/mappings/#explicit-mapping&quot;&gt;Explicit mapping&lt;/a&gt;&lt;/li&gt;&lt;/ul&gt;&lt;div&gt;&lt;pre style=&quot;box-sizing: border-box; font-family: monospace, monospace; font-size: 16px; margin-top: 0px; margin-bottom: 0px; line-height: 1.4; padding: 0px; border: 0px; color: rgb(0, 42, 58); background-color: rgb(245, 247, 247);&quot; class=&quot;highlight&quot;&gt;&lt;code style=&quot;box-sizing: border-box; font-family: &amp;quot;Fira Mono&amp;quot;, Consolas, Menlo, Monaco, &amp;quot;Courier New&amp;quot;, Courier, monospace; font-size: 0.8rem; line-height: 1.4; padding: 0px; border: 0px; border-radius: 4px; font-variant-ligatures: no-common-ligatures; text-rendering: optimizespeed; -webkit-font-smoothing: subpixel-antialiased; margin: 0px;&quot;&gt;&lt;span style=&quot;box-sizing: border-box; color: rgb(147, 161, 161);&quot; class=&quot;p&quot;&gt;{&lt;/span&gt;&lt;span style=&quot;box-sizing: border-box; color: rgb(147, 161, 161);&quot; class=&quot;w&quot;&gt;&lt;br/&gt;  &lt;/span&gt;&lt;span style=&quot;box-sizing: border-box; color: rgb(85, 85, 85);&quot; class=&quot;nl&quot;&gt;&quot;mappings&quot;&lt;/span&gt;&lt;span style=&quot;box-sizing: border-box; color: rgb(147, 161, 161);&quot; class=&quot;p&quot;&gt;:&lt;/span&gt;&lt;span style=&quot;box-sizing: border-box; color: rgb(147, 161, 161);&quot; class=&quot;w&quot;&gt; &lt;/span&gt;&lt;span style=&quot;box-sizing: border-box; color: rgb(147, 161, 161);&quot; class=&quot;p&quot;&gt;{&lt;/span&gt;&lt;span style=&quot;box-sizing: border-box; color: rgb(147, 161, 161);&quot; class=&quot;w&quot;&gt;&lt;br/&gt;    &lt;/span&gt;&lt;span style=&quot;box-sizing: border-box; color: rgb(85, 85, 85);&quot; class=&quot;nl&quot;&gt;&quot;properties&quot;&lt;/span&gt;&lt;span style=&quot;box-sizing: border-box; color: rgb(147, 161, 161);&quot; class=&quot;p&quot;&gt;:&lt;/span&gt;&lt;span style=&quot;box-sizing: border-box; color: rgb(147, 161, 161);&quot; class=&quot;w&quot;&gt; &lt;/span&gt;&lt;span style=&quot;box-sizing: border-box; color: rgb(147, 161, 161);&quot; class=&quot;p&quot;&gt;{&lt;/span&gt;&lt;span style=&quot;box-sizing: border-box; color: rgb(147, 161, 161);&quot; class=&quot;w&quot;&gt;&lt;br/&gt;      &lt;/span&gt;&lt;span style=&quot;box-sizing: border-box; color: rgb(85, 85, 85);&quot; class=&quot;nl&quot;&gt;&quot;year&quot;&lt;/span&gt;&lt;span style=&quot;box-sizing: border-box; color: rgb(147, 161, 161);&quot; class=&quot;p&quot;&gt;:&lt;/span&gt;&lt;span style=&quot;box-sizing: border-box; color: rgb(147, 161, 161);&quot; class=&quot;w&quot;&gt;    &lt;/span&gt;&lt;span style=&quot;box-sizing: border-box; color: rgb(147, 161, 161);&quot; class=&quot;p&quot;&gt;{&lt;/span&gt;&lt;span style=&quot;box-sizing: border-box; color: rgb(147, 161, 161);&quot; class=&quot;w&quot;&gt; &lt;/span&gt;&lt;span style=&quot;box-sizing: border-box; color: rgb(85, 85, 85);&quot; class=&quot;nl&quot;&gt;&quot;type&quot;&lt;/span&gt;&lt;span style=&quot;box-sizing: border-box; color: rgb(147, 161, 161);&quot; class=&quot;w&quot;&gt; &lt;/span&gt;&lt;span style=&quot;box-sizing: border-box; color: rgb(147, 161, 161);&quot; class=&quot;p&quot;&gt;:&lt;/span&gt;&lt;span style=&quot;box-sizing: border-box; color: rgb(147, 161, 161);&quot; class=&quot;w&quot;&gt; &lt;/span&gt;&lt;span style=&quot;box-sizing: border-box; color: rgb(42, 161, 152);&quot; class=&quot;s2&quot;&gt;&quot;text&quot;&lt;/span&gt;&lt;span style=&quot;box-sizing: border-box; color: rgb(147, 161, 161);&quot; class=&quot;w&quot;&gt; &lt;/span&gt;&lt;span style=&quot;box-sizing: border-box; color: rgb(147, 161, 161);&quot; class=&quot;p&quot;&gt;},&lt;/span&gt;&lt;span style=&quot;box-sizing: border-box; color: rgb(147, 161, 161);&quot; class=&quot;w&quot;&gt;&lt;br/&gt;      &lt;/span&gt;&lt;span style=&quot;box-sizing: border-box; color: rgb(85, 85, 85);&quot; class=&quot;nl&quot;&gt;&quot;age&quot;&lt;/span&gt;&lt;span style=&quot;box-sizing: border-box; color: rgb(147, 161, 161);&quot; class=&quot;p&quot;&gt;:&lt;/span&gt;&lt;span style=&quot;box-sizing: border-box; color: rgb(147, 161, 161);&quot; class=&quot;w&quot;&gt;     &lt;/span&gt;&lt;span style=&quot;box-sizing: border-box; color: rgb(147, 161, 161);&quot; class=&quot;p&quot;&gt;{&lt;/span&gt;&lt;span style=&quot;box-sizing: border-box; color: rgb(147, 161, 161);&quot; class=&quot;w&quot;&gt; &lt;/span&gt;&lt;span style=&quot;box-sizing: border-box; color: rgb(85, 85, 85);&quot; class=&quot;nl&quot;&gt;&quot;type&quot;&lt;/span&gt;&lt;span style=&quot;box-sizing: border-box; color: rgb(147, 161, 161);&quot; class=&quot;w&quot;&gt; &lt;/span&gt;&lt;span style=&quot;box-sizing: border-box; color: rgb(147, 161, 161);&quot; class=&quot;p&quot;&gt;:&lt;/span&gt;&lt;span style=&quot;box-sizing: border-box; color: rgb(147, 161, 161);&quot; class=&quot;w&quot;&gt; &lt;/span&gt;&lt;span style=&quot;box-sizing: border-box; color: rgb(42, 161, 152);&quot; class=&quot;s2&quot;&gt;&quot;integer&quot;&lt;/span&gt;&lt;span style=&quot;box-sizing: border-box; color: rgb(147, 161, 161);&quot; class=&quot;w&quot;&gt; &lt;/span&gt;&lt;span style=&quot;box-sizing: border-box; color: rgb(147, 161, 161);&quot; class=&quot;p&quot;&gt;},&lt;/span&gt;&lt;span style=&quot;box-sizing: border-box; color: rgb(147, 161, 161);&quot; class=&quot;w&quot;&gt;&lt;br/&gt;      &lt;/span&gt;&lt;span style=&quot;box-sizing: border-box; color: rgb(85, 85, 85);&quot; class=&quot;nl&quot;&gt;&quot;director&quot;&lt;/span&gt;&lt;span style=&quot;box-sizing: border-box; color: rgb(147, 161, 161);&quot; class=&quot;p&quot;&gt;:{&lt;/span&gt;&lt;span style=&quot;box-sizing: border-box; color: rgb(147, 161, 161);&quot; class=&quot;w&quot;&gt; &lt;/span&gt;&lt;span style=&quot;box-sizing: border-box; color: rgb(85, 85, 85);&quot; class=&quot;nl&quot;&gt;&quot;type&quot;&lt;/span&gt;&lt;span style=&quot;box-sizing: border-box; color: rgb(147, 161, 161);&quot; class=&quot;w&quot;&gt; &lt;/span&gt;&lt;span style=&quot;box-sizing: border-box; color: rgb(147, 161, 161);&quot; class=&quot;p&quot;&gt;:&lt;/span&gt;&lt;span style=&quot;box-sizing: border-box; color: rgb(147, 161, 161);&quot; class=&quot;w&quot;&gt; &lt;/span&gt;&lt;span style=&quot;box-sizing: border-box; color: rgb(42, 161, 152);&quot; class=&quot;s2&quot;&gt;&quot;text&quot;&lt;/span&gt;&lt;span style=&quot;box-sizing: border-box; color: rgb(147, 161, 161);&quot; class=&quot;w&quot;&gt; &lt;/span&gt;&lt;span style=&quot;box-sizing: border-box; color: rgb(147, 161, 161);&quot; class=&quot;p&quot;&gt;}&lt;/span&gt;&lt;span style=&quot;box-sizing: border-box; color: rgb(147, 161, 161);&quot; class=&quot;w&quot;&gt;&lt;br/&gt;    &lt;/span&gt;&lt;span style=&quot;box-sizing: border-box; color: rgb(147, 161, 161);&quot; class=&quot;p&quot;&gt;}&lt;/span&gt;&lt;span style=&quot;box-sizing: border-box; color: rgb(147, 161, 161);&quot; class=&quot;w&quot;&gt;&lt;br/&gt;  &lt;/span&gt;&lt;span style=&quot;box-sizing: border-box; color: rgb(147, 161, 161);&quot; class=&quot;p&quot;&gt;}&lt;/span&gt;&lt;span style=&quot;box-sizing: border-box; color: rgb(147, 161, 161);&quot; class=&quot;w&quot;&gt;&lt;br/&gt;&lt;/span&gt;&lt;span style=&quot;box-sizing: border-box; color: rgb(147, 161, 161);&quot; class=&quot;p&quot;&gt;}&lt;/span&gt;&lt;/code&gt;&lt;/pre&gt;&lt;/div&gt;&lt;p&gt;&lt;/p&gt;" style="text;html=1;strokeColor=default;fillColor=none;spacing=5;spacingTop=-20;whiteSpace=wrap;overflow=hidden;rounded=0;" parent="1" vertex="1">
          <mxGeometry x="240" y="160" width="400" height="320" as="geometry" />
        </mxCell>
        <mxCell id="6aJqT7Tc8klFwzjSWKOG-3" value="&lt;a href=&quot;https://github.com/MacHu-GWU/aws_dla_opensearch_examples/blob/main/tutorial/02-Basic-OpenSearch-API/02-Document-API/e2_bulk_api.py&quot;&gt;Bulk API&lt;/a&gt;" style="rounded=0;whiteSpace=wrap;html=1;fillColor=none;" parent="1" vertex="1">
          <mxGeometry x="520" y="640" width="120" height="80" as="geometry" />
        </mxCell>
        <mxCell id="T1zNOxccJV69avQgIYDY-1" value="&lt;font style=&quot;font-size: 24px;&quot;&gt;👀&lt;/font&gt;" style="rounded=0;whiteSpace=wrap;html=1;strokeColor=#b85450;fillColor=#f8cecc;opacity=30;verticalAlign=top;align=left;" parent="1" vertex="1">
          <mxGeometry x="20" y="20" width="80" height="80" as="geometry" />
        </mxCell>
        <mxCell id="T1zNOxccJV69avQgIYDY-2" value="V S" style="text;html=1;strokeColor=none;fillColor=none;align=center;verticalAlign=middle;whiteSpace=wrap;rounded=0;fontSize=24;opacity=30;" parent="1" vertex="1">
          <mxGeometry x="400" y="660" width="80" height="40" as="geometry" />
        </mxCell>
        <mxCell id="T1zNOxccJV69avQgIYDY-3" value="V S" style="text;html=1;strokeColor=none;fillColor=none;align=center;verticalAlign=middle;whiteSpace=wrap;rounded=0;fontSize=24;opacity=30;" parent="1" vertex="1">
          <mxGeometry x="400" y="900" width="80" height="40" as="geometry" />
        </mxCell>
        <mxCell id="T1zNOxccJV69avQgIYDY-6" value="&lt;h1&gt;Links&lt;/h1&gt;&lt;p&gt;&lt;/p&gt;&lt;ul&gt;&lt;li&gt;&lt;a href=&quot;https://docs.aws.amazon.com/opensearch-service/latest/developerguide/integrations.html&quot;&gt;Loading streaming data into Amazon OpenSearch Service&lt;/a&gt;&lt;br&gt;&lt;/li&gt;&lt;li&gt;&lt;a href=&quot;https://docs.aws.amazon.com/glue/latest/ug/tutorial-elastisearch-connector.html&quot;&gt;AWS Glue Connector&lt;/a&gt;&lt;/li&gt;&lt;li&gt;&lt;a href=&quot;https://docs.aws.amazon.com/athena/latest/ug/connectors-opensearch.html&quot;&gt;Athena Connector&lt;/a&gt;&lt;/li&gt;&lt;/ul&gt;&lt;p&gt;&lt;/p&gt;" style="text;html=1;strokeColor=default;fillColor=none;spacing=5;spacingTop=-20;whiteSpace=wrap;overflow=hidden;rounded=0;" parent="1" vertex="1">
          <mxGeometry x="240" y="1760" width="440" height="160" as="geometry" />
        </mxCell>
        <mxCell id="T1zNOxccJV69avQgIYDY-8" value="&lt;pre style=&quot;background-color:#272822;color:#f8f8f2;font-family:&#39;Source Code Pro&#39;,monospace;font-size:9.8pt;&quot;&gt;records&lt;span style=&quot;color:#f92672;&quot;&gt;: &lt;/span&gt;T.List&lt;span style=&quot;color:#e8ba36;&quot;&gt;[&lt;/span&gt;&lt;span style=&quot;color:#66d9ef;&quot;&gt;dict&lt;/span&gt;&lt;span style=&quot;color:#e8ba36;&quot;&gt;] &lt;/span&gt;&lt;span style=&quot;color:#f92672;&quot;&gt;= &lt;/span&gt;connect.&lt;span style=&quot;color:#66d9ef;&quot;&gt;execute&lt;/span&gt;&lt;span style=&quot;color:#e8ba36;&quot;&gt;(&lt;/span&gt;&lt;span style=&quot;color:#e6db74;&quot;&gt;&quot;&lt;/span&gt;&lt;span style=&quot;color:#e6db74;background-color:#273627;&quot;&gt;SELECT * FROM table&lt;/span&gt;&lt;span style=&quot;color:#e6db74;&quot;&gt;&quot;&lt;/span&gt;&lt;span style=&quot;color:#e8ba36;&quot;&gt;) &lt;br&gt;&lt;/span&gt;&lt;span style=&quot;color:#66d9ef;font-style:italic;&quot;&gt;for &lt;/span&gt;record &lt;span style=&quot;color:#66d9ef;font-style:italic;&quot;&gt;in &lt;/span&gt;records&lt;span style=&quot;color:#f92672;&quot;&gt;:&lt;br&gt;&lt;/span&gt;&lt;span style=&quot;color:#f92672;&quot;&gt;    &lt;/span&gt;oss.&lt;span style=&quot;color:#66d9ef;&quot;&gt;index&lt;/span&gt;&lt;span style=&quot;color:#e8ba36;&quot;&gt;(&lt;/span&gt;&lt;span style=&quot;color:#aa4926;&quot;&gt;id&lt;/span&gt;&lt;span style=&quot;color:#f92672;&quot;&gt;=&lt;/span&gt;&lt;span style=&quot;color:#66d9ef;&quot;&gt;uuid&lt;/span&gt;&lt;span style=&quot;color:#54a857;&quot;&gt;()&lt;/span&gt;, &lt;span style=&quot;color:#aa4926;&quot;&gt;document&lt;/span&gt;&lt;span style=&quot;color:#f92672;&quot;&gt;= &lt;/span&gt;record&lt;span style=&quot;color:#e8ba36;&quot;&gt;)&lt;br&gt;&lt;/span&gt;&lt;/pre&gt;" style="text;html=1;strokeColor=none;fillColor=none;align=left;verticalAlign=middle;whiteSpace=wrap;rounded=0;fontSize=12;opacity=30;" parent="1" vertex="1">
          <mxGeometry x="40" y="1000" width="520" height="80" as="geometry" />
        </mxCell>
        <mxCell id="T1zNOxccJV69avQgIYDY-15" style="edgeStyle=orthogonalEdgeStyle;rounded=0;orthogonalLoop=1;jettySize=auto;html=1;exitX=1;exitY=0.5;exitDx=0;exitDy=0;entryX=0;entryY=0.5;entryDx=0;entryDy=0;entryPerimeter=0;fontSize=12;" parent="1" source="T1zNOxccJV69avQgIYDY-10" target="lenC1VuZjVZI06oC55cN-4" edge="1">
          <mxGeometry relative="1" as="geometry" />
        </mxCell>
        <mxCell id="T1zNOxccJV69avQgIYDY-16" style="edgeStyle=orthogonalEdgeStyle;rounded=0;orthogonalLoop=1;jettySize=auto;html=1;exitX=1;exitY=0.5;exitDx=0;exitDy=0;entryX=0;entryY=0.5;entryDx=0;entryDy=0;entryPerimeter=0;fontSize=12;" parent="1" source="T1zNOxccJV69avQgIYDY-10" target="lenC1VuZjVZI06oC55cN-5" edge="1">
          <mxGeometry relative="1" as="geometry" />
        </mxCell>
        <mxCell id="T1zNOxccJV69avQgIYDY-10" value="Source" style="rounded=0;whiteSpace=wrap;html=1;fillColor=none;" parent="1" vertex="1">
          <mxGeometry x="240" y="1260" width="80" height="80" as="geometry" />
        </mxCell>
        <mxCell id="T1zNOxccJV69avQgIYDY-11" value="OSS" style="sketch=0;points=[[0,0,0],[0.25,0,0],[0.5,0,0],[0.75,0,0],[1,0,0],[0,1,0],[0.25,1,0],[0.5,1,0],[0.75,1,0],[1,1,0],[0,0.25,0],[0,0.5,0],[0,0.75,0],[1,0.25,0],[1,0.5,0],[1,0.75,0]];outlineConnect=0;fontColor=#232F3E;gradientColor=#945DF2;gradientDirection=north;fillColor=#5A30B5;strokeColor=#ffffff;dashed=0;verticalLabelPosition=bottom;verticalAlign=top;align=center;html=1;fontSize=12;fontStyle=0;aspect=fixed;shape=mxgraph.aws4.resourceIcon;resIcon=mxgraph.aws4.elasticsearch_service;" parent="1" vertex="1">
          <mxGeometry x="560" y="1260" width="80" height="80" as="geometry" />
        </mxCell>
        <mxCell id="T1zNOxccJV69avQgIYDY-14" value="" style="rounded=0;whiteSpace=wrap;html=1;strokeColor=#6c8ebf;fontSize=12;fillColor=#dae8fc;opacity=30;" parent="1" vertex="1">
          <mxGeometry x="240" y="1480" width="400" height="120" as="geometry" />
        </mxCell>
        <mxCell id="T1zNOxccJV69avQgIYDY-13" value="Metadata" style="sketch=0;points=[[0,0,0],[0.25,0,0],[0.5,0,0],[0.75,0,0],[1,0,0],[0,1,0],[0.25,1,0],[0.5,1,0],[0.75,1,0],[1,1,0],[0,0.25,0],[0,0.5,0],[0,0.75,0],[1,0.25,0],[1,0.5,0],[1,0.75,0]];outlineConnect=0;fontColor=#232F3E;gradientColor=#4D72F3;gradientDirection=north;fillColor=#3334B9;strokeColor=#ffffff;dashed=0;verticalLabelPosition=bottom;verticalAlign=top;align=center;html=1;fontSize=12;fontStyle=0;aspect=fixed;shape=mxgraph.aws4.resourceIcon;resIcon=mxgraph.aws4.dynamodb;" parent="1" vertex="1">
          <mxGeometry x="400" y="1500" width="80" height="80" as="geometry" />
        </mxCell>
        <mxCell id="4bfURF4pdkkrIgPeDpXy-1" value="Ingest data into OSS ⏰ 5 min" style="text;html=1;strokeColor=#9673a6;fillColor=#e1d5e7;align=center;verticalAlign=middle;whiteSpace=wrap;rounded=0;fontStyle=1;fontSize=16;" vertex="1" parent="1">
          <mxGeometry x="40" y="40" width="800" height="40" as="geometry" />
        </mxCell>
        <mxCell id="4bfURF4pdkkrIgPeDpXy-2" value="&lt;b&gt;ETL Pipeline&lt;/b&gt;" style="rounded=0;whiteSpace=wrap;html=1;fontFamily=Helvetica;fontSize=11;fontColor=default;fillColor=none;verticalAlign=top;" vertex="1" parent="1">
          <mxGeometry x="160" y="1120" width="560" height="520" as="geometry" />
        </mxCell>
      </root>
    </mxGraphModel>
  </diagram>
</mxfile>
